<mxfile host="65bd71144e">
    <diagram id="5zc5gLqtbpszu8rlKBpC" name="S_i2c_clock_counter">
        <mxGraphModel dx="1352" dy="797" grid="1" gridSize="10" guides="1" tooltips="1" connect="1" arrows="1" fold="1" page="1" pageScale="1" pageWidth="850" pageHeight="1100" math="0" shadow="0">
            <root>
                <mxCell id="0"/>
                <mxCell id="1" parent="0"/>
                <mxCell id="OsnJvZsiz_xSSpyNDT6h-1" value="Counter" style="text;html=1;align=center;verticalAlign=middle;whiteSpace=wrap;rounded=0;" vertex="1" parent="1">
                    <mxGeometry width="80" height="40" as="geometry"/>
                </mxCell>
                <mxCell id="OsnJvZsiz_xSSpyNDT6h-176" value="SDL" style="text;html=1;align=center;verticalAlign=middle;whiteSpace=wrap;rounded=0;" vertex="1" parent="1">
                    <mxGeometry y="40" width="80" height="40" as="geometry"/>
                </mxCell>
                <mxCell id="OsnJvZsiz_xSSpyNDT6h-177" value="SCL" style="text;html=1;align=center;verticalAlign=middle;whiteSpace=wrap;rounded=0;" vertex="1" parent="1">
                    <mxGeometry y="80" width="80" height="40" as="geometry"/>
                </mxCell>
                <mxCell id="OsnJvZsiz_xSSpyNDT6h-557" value="" style="endArrow=none;html=1;exitX=1;exitY=0.25;exitDx=0;exitDy=0;fillColor=#fff2cc;strokeColor=#d6b656;" edge="1" parent="1" source="OsnJvZsiz_xSSpyNDT6h-177">
                    <mxGeometry width="50" height="50" relative="1" as="geometry">
                        <mxPoint x="80" y="110" as="sourcePoint"/>
                        <mxPoint x="120" y="110" as="targetPoint"/>
                        <Array as="points">
                            <mxPoint x="110" y="90"/>
                            <mxPoint x="115" y="110"/>
                        </Array>
                    </mxGeometry>
                </mxCell>
                <mxCell id="OsnJvZsiz_xSSpyNDT6h-664" value="Start" style="text;html=1;align=center;verticalAlign=middle;whiteSpace=wrap;rounded=0;" vertex="1" parent="1">
                    <mxGeometry x="80" y="40" width="40" height="10" as="geometry"/>
                </mxCell>
                <mxCell id="OsnJvZsiz_xSSpyNDT6h-1023" value="" style="group" vertex="1" connectable="0" parent="1">
                    <mxGeometry x="80" y="1" width="630.48" height="39" as="geometry"/>
                </mxCell>
                <mxCell id="OsnJvZsiz_xSSpyNDT6h-956" value="" style="endArrow=none;html=1;strokeWidth=2;strokeColor=#666666;dashed=1;" edge="1" parent="OsnJvZsiz_xSSpyNDT6h-1023">
                    <mxGeometry width="50" height="50" relative="1" as="geometry">
                        <mxPoint y="39" as="sourcePoint"/>
                        <mxPoint as="targetPoint"/>
                    </mxGeometry>
                </mxCell>
                <mxCell id="OsnJvZsiz_xSSpyNDT6h-957" value="" style="endArrow=none;dashed=1;html=1;strokeWidth=1;strokeColor=#666666;" edge="1" parent="OsnJvZsiz_xSSpyNDT6h-1023">
                    <mxGeometry width="50" height="50" relative="1" as="geometry">
                        <mxPoint x="10.480000000000004" y="39" as="sourcePoint"/>
                        <mxPoint x="10.480000000000004" as="targetPoint"/>
                    </mxGeometry>
                </mxCell>
                <mxCell id="OsnJvZsiz_xSSpyNDT6h-958" value="" style="endArrow=none;dashed=1;html=1;strokeWidth=1;strokeColor=#666666;" edge="1" parent="OsnJvZsiz_xSSpyNDT6h-1023">
                    <mxGeometry width="50" height="50" relative="1" as="geometry">
                        <mxPoint x="20.239999999999995" y="39" as="sourcePoint"/>
                        <mxPoint x="20.239999999999995" as="targetPoint"/>
                    </mxGeometry>
                </mxCell>
                <mxCell id="OsnJvZsiz_xSSpyNDT6h-959" value="" style="endArrow=none;dashed=1;html=1;strokeWidth=1;strokeColor=#666666;" edge="1" parent="OsnJvZsiz_xSSpyNDT6h-1023">
                    <mxGeometry width="50" height="50" relative="1" as="geometry">
                        <mxPoint x="30.480000000000004" y="39" as="sourcePoint"/>
                        <mxPoint x="30.480000000000004" as="targetPoint"/>
                    </mxGeometry>
                </mxCell>
                <mxCell id="OsnJvZsiz_xSSpyNDT6h-960" value="" style="endArrow=none;html=1;strokeWidth=2;strokeColor=#666666;dashed=1;" edge="1" parent="OsnJvZsiz_xSSpyNDT6h-1023">
                    <mxGeometry width="50" height="50" relative="1" as="geometry">
                        <mxPoint x="39.999999999999986" y="39" as="sourcePoint"/>
                        <mxPoint x="39.999999999999986" as="targetPoint"/>
                    </mxGeometry>
                </mxCell>
                <mxCell id="OsnJvZsiz_xSSpyNDT6h-961" value="" style="endArrow=none;dashed=1;html=1;strokeWidth=1;strokeColor=#666666;" edge="1" parent="OsnJvZsiz_xSSpyNDT6h-1023">
                    <mxGeometry width="50" height="50" relative="1" as="geometry">
                        <mxPoint x="50.480000000000004" y="39" as="sourcePoint"/>
                        <mxPoint x="50.480000000000004" as="targetPoint"/>
                    </mxGeometry>
                </mxCell>
                <mxCell id="OsnJvZsiz_xSSpyNDT6h-962" value="" style="endArrow=none;dashed=1;html=1;strokeWidth=1;strokeColor=#666666;" edge="1" parent="OsnJvZsiz_xSSpyNDT6h-1023">
                    <mxGeometry width="50" height="50" relative="1" as="geometry">
                        <mxPoint x="60.239999999999995" y="39" as="sourcePoint"/>
                        <mxPoint x="60.239999999999995" as="targetPoint"/>
                    </mxGeometry>
                </mxCell>
                <mxCell id="OsnJvZsiz_xSSpyNDT6h-963" value="" style="endArrow=none;dashed=1;html=1;strokeWidth=1;strokeColor=#666666;" edge="1" parent="OsnJvZsiz_xSSpyNDT6h-1023">
                    <mxGeometry width="50" height="50" relative="1" as="geometry">
                        <mxPoint x="70.48" y="39" as="sourcePoint"/>
                        <mxPoint x="70.48" as="targetPoint"/>
                    </mxGeometry>
                </mxCell>
                <mxCell id="OsnJvZsiz_xSSpyNDT6h-964" value="" style="endArrow=none;html=1;strokeWidth=2;strokeColor=#666666;dashed=1;" edge="1" parent="OsnJvZsiz_xSSpyNDT6h-1023">
                    <mxGeometry width="50" height="50" relative="1" as="geometry">
                        <mxPoint x="79.99999999999999" y="39" as="sourcePoint"/>
                        <mxPoint x="79.99999999999999" as="targetPoint"/>
                    </mxGeometry>
                </mxCell>
                <mxCell id="OsnJvZsiz_xSSpyNDT6h-965" value="" style="endArrow=none;dashed=1;html=1;strokeWidth=1;strokeColor=#666666;" edge="1" parent="OsnJvZsiz_xSSpyNDT6h-1023">
                    <mxGeometry width="50" height="50" relative="1" as="geometry">
                        <mxPoint x="90.48" y="39" as="sourcePoint"/>
                        <mxPoint x="90.48" as="targetPoint"/>
                    </mxGeometry>
                </mxCell>
                <mxCell id="OsnJvZsiz_xSSpyNDT6h-966" value="" style="endArrow=none;dashed=1;html=1;strokeWidth=1;strokeColor=#666666;" edge="1" parent="OsnJvZsiz_xSSpyNDT6h-1023">
                    <mxGeometry width="50" height="50" relative="1" as="geometry">
                        <mxPoint x="100.24" y="39" as="sourcePoint"/>
                        <mxPoint x="100.24" as="targetPoint"/>
                    </mxGeometry>
                </mxCell>
                <mxCell id="OsnJvZsiz_xSSpyNDT6h-967" value="" style="endArrow=none;dashed=1;html=1;strokeWidth=1;strokeColor=#666666;" edge="1" parent="OsnJvZsiz_xSSpyNDT6h-1023">
                    <mxGeometry width="50" height="50" relative="1" as="geometry">
                        <mxPoint x="110.48" y="39" as="sourcePoint"/>
                        <mxPoint x="110.48" as="targetPoint"/>
                    </mxGeometry>
                </mxCell>
                <mxCell id="OsnJvZsiz_xSSpyNDT6h-968" value="" style="endArrow=none;html=1;strokeWidth=2;strokeColor=#666666;dashed=1;" edge="1" parent="OsnJvZsiz_xSSpyNDT6h-1023">
                    <mxGeometry width="50" height="50" relative="1" as="geometry">
                        <mxPoint x="119.99999999999999" y="39" as="sourcePoint"/>
                        <mxPoint x="119.99999999999999" as="targetPoint"/>
                    </mxGeometry>
                </mxCell>
                <mxCell id="OsnJvZsiz_xSSpyNDT6h-969" value="" style="endArrow=none;dashed=1;html=1;strokeWidth=1;strokeColor=#666666;" edge="1" parent="OsnJvZsiz_xSSpyNDT6h-1023">
                    <mxGeometry width="50" height="50" relative="1" as="geometry">
                        <mxPoint x="130.48000000000002" y="39" as="sourcePoint"/>
                        <mxPoint x="130.48000000000002" as="targetPoint"/>
                    </mxGeometry>
                </mxCell>
                <mxCell id="OsnJvZsiz_xSSpyNDT6h-970" value="" style="endArrow=none;dashed=1;html=1;strokeWidth=1;strokeColor=#666666;" edge="1" parent="OsnJvZsiz_xSSpyNDT6h-1023">
                    <mxGeometry width="50" height="50" relative="1" as="geometry">
                        <mxPoint x="140.24" y="39" as="sourcePoint"/>
                        <mxPoint x="140.24" as="targetPoint"/>
                    </mxGeometry>
                </mxCell>
                <mxCell id="OsnJvZsiz_xSSpyNDT6h-971" value="" style="endArrow=none;dashed=1;html=1;strokeWidth=1;strokeColor=#666666;" edge="1" parent="OsnJvZsiz_xSSpyNDT6h-1023">
                    <mxGeometry width="50" height="50" relative="1" as="geometry">
                        <mxPoint x="150.48000000000002" y="39" as="sourcePoint"/>
                        <mxPoint x="150.48000000000002" as="targetPoint"/>
                    </mxGeometry>
                </mxCell>
                <mxCell id="OsnJvZsiz_xSSpyNDT6h-972" value="" style="endArrow=none;html=1;strokeWidth=2;strokeColor=#666666;dashed=1;" edge="1" parent="OsnJvZsiz_xSSpyNDT6h-1023">
                    <mxGeometry width="50" height="50" relative="1" as="geometry">
                        <mxPoint x="160" y="39" as="sourcePoint"/>
                        <mxPoint x="160" as="targetPoint"/>
                    </mxGeometry>
                </mxCell>
                <mxCell id="OsnJvZsiz_xSSpyNDT6h-973" value="" style="endArrow=none;dashed=1;html=1;strokeWidth=1;strokeColor=#666666;" edge="1" parent="OsnJvZsiz_xSSpyNDT6h-1023">
                    <mxGeometry width="50" height="50" relative="1" as="geometry">
                        <mxPoint x="170.48000000000002" y="39" as="sourcePoint"/>
                        <mxPoint x="170.48000000000002" as="targetPoint"/>
                    </mxGeometry>
                </mxCell>
                <mxCell id="OsnJvZsiz_xSSpyNDT6h-974" value="" style="endArrow=none;dashed=1;html=1;strokeWidth=1;strokeColor=#666666;" edge="1" parent="OsnJvZsiz_xSSpyNDT6h-1023">
                    <mxGeometry width="50" height="50" relative="1" as="geometry">
                        <mxPoint x="180.24" y="39" as="sourcePoint"/>
                        <mxPoint x="180.24" as="targetPoint"/>
                    </mxGeometry>
                </mxCell>
                <mxCell id="OsnJvZsiz_xSSpyNDT6h-975" value="" style="endArrow=none;dashed=1;html=1;strokeWidth=1;strokeColor=#666666;" edge="1" parent="OsnJvZsiz_xSSpyNDT6h-1023">
                    <mxGeometry width="50" height="50" relative="1" as="geometry">
                        <mxPoint x="190.48000000000002" y="39" as="sourcePoint"/>
                        <mxPoint x="190.48000000000002" as="targetPoint"/>
                    </mxGeometry>
                </mxCell>
                <mxCell id="OsnJvZsiz_xSSpyNDT6h-976" value="" style="endArrow=none;html=1;strokeWidth=2;strokeColor=#666666;dashed=1;" edge="1" parent="OsnJvZsiz_xSSpyNDT6h-1023">
                    <mxGeometry width="50" height="50" relative="1" as="geometry">
                        <mxPoint x="200" y="39" as="sourcePoint"/>
                        <mxPoint x="200" as="targetPoint"/>
                    </mxGeometry>
                </mxCell>
                <mxCell id="OsnJvZsiz_xSSpyNDT6h-977" value="" style="endArrow=none;dashed=1;html=1;strokeWidth=1;strokeColor=#666666;" edge="1" parent="OsnJvZsiz_xSSpyNDT6h-1023">
                    <mxGeometry width="50" height="50" relative="1" as="geometry">
                        <mxPoint x="210.48000000000002" y="39" as="sourcePoint"/>
                        <mxPoint x="210.48000000000002" as="targetPoint"/>
                    </mxGeometry>
                </mxCell>
                <mxCell id="OsnJvZsiz_xSSpyNDT6h-978" value="" style="endArrow=none;dashed=1;html=1;strokeWidth=1;strokeColor=#666666;" edge="1" parent="OsnJvZsiz_xSSpyNDT6h-1023">
                    <mxGeometry width="50" height="50" relative="1" as="geometry">
                        <mxPoint x="220.24" y="39" as="sourcePoint"/>
                        <mxPoint x="220.24" as="targetPoint"/>
                    </mxGeometry>
                </mxCell>
                <mxCell id="OsnJvZsiz_xSSpyNDT6h-979" value="" style="endArrow=none;dashed=1;html=1;strokeWidth=1;strokeColor=#666666;" edge="1" parent="OsnJvZsiz_xSSpyNDT6h-1023">
                    <mxGeometry width="50" height="50" relative="1" as="geometry">
                        <mxPoint x="230.48000000000002" y="39" as="sourcePoint"/>
                        <mxPoint x="230.48000000000002" as="targetPoint"/>
                    </mxGeometry>
                </mxCell>
                <mxCell id="OsnJvZsiz_xSSpyNDT6h-980" value="" style="endArrow=none;html=1;strokeWidth=2;strokeColor=#666666;dashed=1;" edge="1" parent="OsnJvZsiz_xSSpyNDT6h-1023">
                    <mxGeometry width="50" height="50" relative="1" as="geometry">
                        <mxPoint x="240" y="39" as="sourcePoint"/>
                        <mxPoint x="240" as="targetPoint"/>
                    </mxGeometry>
                </mxCell>
                <mxCell id="OsnJvZsiz_xSSpyNDT6h-981" value="" style="endArrow=none;dashed=1;html=1;strokeWidth=1;strokeColor=#666666;" edge="1" parent="OsnJvZsiz_xSSpyNDT6h-1023">
                    <mxGeometry width="50" height="50" relative="1" as="geometry">
                        <mxPoint x="250.48000000000002" y="39" as="sourcePoint"/>
                        <mxPoint x="250.48000000000002" as="targetPoint"/>
                    </mxGeometry>
                </mxCell>
                <mxCell id="OsnJvZsiz_xSSpyNDT6h-982" value="" style="endArrow=none;dashed=1;html=1;strokeWidth=1;strokeColor=#666666;" edge="1" parent="OsnJvZsiz_xSSpyNDT6h-1023">
                    <mxGeometry width="50" height="50" relative="1" as="geometry">
                        <mxPoint x="260.24" y="39" as="sourcePoint"/>
                        <mxPoint x="260.24" as="targetPoint"/>
                    </mxGeometry>
                </mxCell>
                <mxCell id="OsnJvZsiz_xSSpyNDT6h-983" value="" style="endArrow=none;dashed=1;html=1;strokeWidth=1;strokeColor=#666666;" edge="1" parent="OsnJvZsiz_xSSpyNDT6h-1023">
                    <mxGeometry width="50" height="50" relative="1" as="geometry">
                        <mxPoint x="270.48" y="39" as="sourcePoint"/>
                        <mxPoint x="270.48" as="targetPoint"/>
                    </mxGeometry>
                </mxCell>
                <mxCell id="OsnJvZsiz_xSSpyNDT6h-984" value="" style="endArrow=none;html=1;strokeWidth=2;strokeColor=#666666;dashed=1;" edge="1" parent="OsnJvZsiz_xSSpyNDT6h-1023">
                    <mxGeometry width="50" height="50" relative="1" as="geometry">
                        <mxPoint x="280" y="39" as="sourcePoint"/>
                        <mxPoint x="280" as="targetPoint"/>
                    </mxGeometry>
                </mxCell>
                <mxCell id="OsnJvZsiz_xSSpyNDT6h-985" value="" style="endArrow=none;dashed=1;html=1;strokeWidth=1;strokeColor=#666666;" edge="1" parent="OsnJvZsiz_xSSpyNDT6h-1023">
                    <mxGeometry width="50" height="50" relative="1" as="geometry">
                        <mxPoint x="290.48" y="39" as="sourcePoint"/>
                        <mxPoint x="290.48" as="targetPoint"/>
                    </mxGeometry>
                </mxCell>
                <mxCell id="OsnJvZsiz_xSSpyNDT6h-986" value="" style="endArrow=none;dashed=1;html=1;strokeWidth=1;strokeColor=#666666;" edge="1" parent="OsnJvZsiz_xSSpyNDT6h-1023">
                    <mxGeometry width="50" height="50" relative="1" as="geometry">
                        <mxPoint x="300.24" y="39" as="sourcePoint"/>
                        <mxPoint x="300.24" as="targetPoint"/>
                    </mxGeometry>
                </mxCell>
                <mxCell id="OsnJvZsiz_xSSpyNDT6h-987" value="" style="endArrow=none;dashed=1;html=1;strokeWidth=1;strokeColor=#666666;" edge="1" parent="OsnJvZsiz_xSSpyNDT6h-1023">
                    <mxGeometry width="50" height="50" relative="1" as="geometry">
                        <mxPoint x="310.48" y="39" as="sourcePoint"/>
                        <mxPoint x="310.48" as="targetPoint"/>
                    </mxGeometry>
                </mxCell>
                <mxCell id="OsnJvZsiz_xSSpyNDT6h-988" value="" style="endArrow=none;html=1;strokeWidth=2;strokeColor=#666666;dashed=1;" edge="1" parent="OsnJvZsiz_xSSpyNDT6h-1023">
                    <mxGeometry width="50" height="50" relative="1" as="geometry">
                        <mxPoint x="320" y="39" as="sourcePoint"/>
                        <mxPoint x="320" as="targetPoint"/>
                    </mxGeometry>
                </mxCell>
                <mxCell id="OsnJvZsiz_xSSpyNDT6h-989" value="" style="endArrow=none;dashed=1;html=1;strokeWidth=1;strokeColor=#666666;" edge="1" parent="OsnJvZsiz_xSSpyNDT6h-1023">
                    <mxGeometry width="50" height="50" relative="1" as="geometry">
                        <mxPoint x="330.48" y="39" as="sourcePoint"/>
                        <mxPoint x="330.48" as="targetPoint"/>
                    </mxGeometry>
                </mxCell>
                <mxCell id="OsnJvZsiz_xSSpyNDT6h-990" value="" style="endArrow=none;dashed=1;html=1;strokeWidth=1;strokeColor=#666666;" edge="1" parent="OsnJvZsiz_xSSpyNDT6h-1023">
                    <mxGeometry width="50" height="50" relative="1" as="geometry">
                        <mxPoint x="340.24" y="39" as="sourcePoint"/>
                        <mxPoint x="340.24" as="targetPoint"/>
                    </mxGeometry>
                </mxCell>
                <mxCell id="OsnJvZsiz_xSSpyNDT6h-991" value="" style="endArrow=none;dashed=1;html=1;strokeWidth=1;strokeColor=#666666;" edge="1" parent="OsnJvZsiz_xSSpyNDT6h-1023">
                    <mxGeometry width="50" height="50" relative="1" as="geometry">
                        <mxPoint x="350.48" y="39" as="sourcePoint"/>
                        <mxPoint x="350.48" as="targetPoint"/>
                    </mxGeometry>
                </mxCell>
                <mxCell id="OsnJvZsiz_xSSpyNDT6h-992" value="" style="endArrow=none;html=1;strokeWidth=2;strokeColor=#666666;dashed=1;" edge="1" parent="OsnJvZsiz_xSSpyNDT6h-1023">
                    <mxGeometry width="50" height="50" relative="1" as="geometry">
                        <mxPoint x="360" y="39" as="sourcePoint"/>
                        <mxPoint x="360" as="targetPoint"/>
                    </mxGeometry>
                </mxCell>
                <mxCell id="OsnJvZsiz_xSSpyNDT6h-993" value="" style="endArrow=none;dashed=1;html=1;strokeWidth=1;strokeColor=#666666;" edge="1" parent="OsnJvZsiz_xSSpyNDT6h-1023">
                    <mxGeometry width="50" height="50" relative="1" as="geometry">
                        <mxPoint x="370.48" y="39" as="sourcePoint"/>
                        <mxPoint x="370.48" as="targetPoint"/>
                    </mxGeometry>
                </mxCell>
                <mxCell id="OsnJvZsiz_xSSpyNDT6h-994" value="" style="endArrow=none;dashed=1;html=1;strokeWidth=1;strokeColor=#666666;" edge="1" parent="OsnJvZsiz_xSSpyNDT6h-1023">
                    <mxGeometry width="50" height="50" relative="1" as="geometry">
                        <mxPoint x="380.24" y="39" as="sourcePoint"/>
                        <mxPoint x="380.24" as="targetPoint"/>
                    </mxGeometry>
                </mxCell>
                <mxCell id="OsnJvZsiz_xSSpyNDT6h-995" value="" style="endArrow=none;dashed=1;html=1;strokeWidth=1;strokeColor=#666666;" edge="1" parent="OsnJvZsiz_xSSpyNDT6h-1023">
                    <mxGeometry width="50" height="50" relative="1" as="geometry">
                        <mxPoint x="390.48" y="39" as="sourcePoint"/>
                        <mxPoint x="390.48" as="targetPoint"/>
                    </mxGeometry>
                </mxCell>
                <mxCell id="OsnJvZsiz_xSSpyNDT6h-996" value="" style="endArrow=none;html=1;strokeWidth=2;strokeColor=#666666;dashed=1;" edge="1" parent="OsnJvZsiz_xSSpyNDT6h-1023">
                    <mxGeometry width="50" height="50" relative="1" as="geometry">
                        <mxPoint x="400" y="39" as="sourcePoint"/>
                        <mxPoint x="400" as="targetPoint"/>
                    </mxGeometry>
                </mxCell>
                <mxCell id="OsnJvZsiz_xSSpyNDT6h-997" value="" style="endArrow=none;dashed=1;html=1;strokeWidth=1;strokeColor=#666666;" edge="1" parent="OsnJvZsiz_xSSpyNDT6h-1023">
                    <mxGeometry width="50" height="50" relative="1" as="geometry">
                        <mxPoint x="410.48" y="39" as="sourcePoint"/>
                        <mxPoint x="410.48" as="targetPoint"/>
                    </mxGeometry>
                </mxCell>
                <mxCell id="OsnJvZsiz_xSSpyNDT6h-998" value="" style="endArrow=none;dashed=1;html=1;strokeWidth=1;strokeColor=#666666;" edge="1" parent="OsnJvZsiz_xSSpyNDT6h-1023">
                    <mxGeometry width="50" height="50" relative="1" as="geometry">
                        <mxPoint x="420.24" y="39" as="sourcePoint"/>
                        <mxPoint x="420.24" as="targetPoint"/>
                    </mxGeometry>
                </mxCell>
                <mxCell id="OsnJvZsiz_xSSpyNDT6h-999" value="" style="endArrow=none;dashed=1;html=1;strokeWidth=1;strokeColor=#666666;" edge="1" parent="OsnJvZsiz_xSSpyNDT6h-1023">
                    <mxGeometry width="50" height="50" relative="1" as="geometry">
                        <mxPoint x="430.48" y="39" as="sourcePoint"/>
                        <mxPoint x="430.48" as="targetPoint"/>
                    </mxGeometry>
                </mxCell>
                <mxCell id="OsnJvZsiz_xSSpyNDT6h-1000" value="" style="endArrow=none;html=1;strokeWidth=2;strokeColor=#666666;dashed=1;" edge="1" parent="OsnJvZsiz_xSSpyNDT6h-1023">
                    <mxGeometry width="50" height="50" relative="1" as="geometry">
                        <mxPoint x="440" y="39" as="sourcePoint"/>
                        <mxPoint x="440" as="targetPoint"/>
                    </mxGeometry>
                </mxCell>
                <mxCell id="OsnJvZsiz_xSSpyNDT6h-1001" value="" style="endArrow=none;dashed=1;html=1;strokeWidth=1;strokeColor=#666666;" edge="1" parent="OsnJvZsiz_xSSpyNDT6h-1023">
                    <mxGeometry width="50" height="50" relative="1" as="geometry">
                        <mxPoint x="450.48" y="39" as="sourcePoint"/>
                        <mxPoint x="450.48" as="targetPoint"/>
                    </mxGeometry>
                </mxCell>
                <mxCell id="OsnJvZsiz_xSSpyNDT6h-1002" value="" style="endArrow=none;dashed=1;html=1;strokeWidth=1;strokeColor=#666666;" edge="1" parent="OsnJvZsiz_xSSpyNDT6h-1023">
                    <mxGeometry width="50" height="50" relative="1" as="geometry">
                        <mxPoint x="460.24" y="39" as="sourcePoint"/>
                        <mxPoint x="460.24" as="targetPoint"/>
                    </mxGeometry>
                </mxCell>
                <mxCell id="OsnJvZsiz_xSSpyNDT6h-1003" value="" style="endArrow=none;dashed=1;html=1;strokeWidth=1;strokeColor=#666666;" edge="1" parent="OsnJvZsiz_xSSpyNDT6h-1023">
                    <mxGeometry width="50" height="50" relative="1" as="geometry">
                        <mxPoint x="470.48" y="39" as="sourcePoint"/>
                        <mxPoint x="470.48" as="targetPoint"/>
                    </mxGeometry>
                </mxCell>
                <mxCell id="OsnJvZsiz_xSSpyNDT6h-1004" value="" style="endArrow=none;html=1;strokeWidth=2;strokeColor=#666666;dashed=1;" edge="1" parent="OsnJvZsiz_xSSpyNDT6h-1023">
                    <mxGeometry width="50" height="50" relative="1" as="geometry">
                        <mxPoint x="480" y="39" as="sourcePoint"/>
                        <mxPoint x="480" as="targetPoint"/>
                    </mxGeometry>
                </mxCell>
                <mxCell id="OsnJvZsiz_xSSpyNDT6h-1005" value="" style="endArrow=none;dashed=1;html=1;strokeWidth=1;strokeColor=#666666;" edge="1" parent="OsnJvZsiz_xSSpyNDT6h-1023">
                    <mxGeometry width="50" height="50" relative="1" as="geometry">
                        <mxPoint x="490.48" y="39" as="sourcePoint"/>
                        <mxPoint x="490.48" as="targetPoint"/>
                    </mxGeometry>
                </mxCell>
                <mxCell id="OsnJvZsiz_xSSpyNDT6h-1006" value="" style="endArrow=none;dashed=1;html=1;strokeWidth=1;strokeColor=#666666;" edge="1" parent="OsnJvZsiz_xSSpyNDT6h-1023">
                    <mxGeometry width="50" height="50" relative="1" as="geometry">
                        <mxPoint x="500.24" y="39" as="sourcePoint"/>
                        <mxPoint x="500.24" as="targetPoint"/>
                    </mxGeometry>
                </mxCell>
                <mxCell id="OsnJvZsiz_xSSpyNDT6h-1007" value="" style="endArrow=none;dashed=1;html=1;strokeWidth=1;strokeColor=#666666;" edge="1" parent="OsnJvZsiz_xSSpyNDT6h-1023">
                    <mxGeometry width="50" height="50" relative="1" as="geometry">
                        <mxPoint x="510.48" y="39" as="sourcePoint"/>
                        <mxPoint x="510.48" as="targetPoint"/>
                    </mxGeometry>
                </mxCell>
                <mxCell id="OsnJvZsiz_xSSpyNDT6h-1008" value="" style="endArrow=none;html=1;strokeWidth=2;strokeColor=#666666;dashed=1;" edge="1" parent="OsnJvZsiz_xSSpyNDT6h-1023">
                    <mxGeometry width="50" height="50" relative="1" as="geometry">
                        <mxPoint x="520" y="39" as="sourcePoint"/>
                        <mxPoint x="520" as="targetPoint"/>
                    </mxGeometry>
                </mxCell>
                <mxCell id="OsnJvZsiz_xSSpyNDT6h-1009" value="" style="endArrow=none;dashed=1;html=1;strokeWidth=1;strokeColor=#666666;" edge="1" parent="OsnJvZsiz_xSSpyNDT6h-1023">
                    <mxGeometry width="50" height="50" relative="1" as="geometry">
                        <mxPoint x="530.48" y="39" as="sourcePoint"/>
                        <mxPoint x="530.48" as="targetPoint"/>
                    </mxGeometry>
                </mxCell>
                <mxCell id="OsnJvZsiz_xSSpyNDT6h-1010" value="" style="endArrow=none;dashed=1;html=1;strokeWidth=1;strokeColor=#666666;" edge="1" parent="OsnJvZsiz_xSSpyNDT6h-1023">
                    <mxGeometry width="50" height="50" relative="1" as="geometry">
                        <mxPoint x="540.24" y="39" as="sourcePoint"/>
                        <mxPoint x="540.24" as="targetPoint"/>
                    </mxGeometry>
                </mxCell>
                <mxCell id="OsnJvZsiz_xSSpyNDT6h-1011" value="" style="endArrow=none;dashed=1;html=1;strokeWidth=1;strokeColor=#666666;" edge="1" parent="OsnJvZsiz_xSSpyNDT6h-1023">
                    <mxGeometry width="50" height="50" relative="1" as="geometry">
                        <mxPoint x="550.48" y="39" as="sourcePoint"/>
                        <mxPoint x="550.48" as="targetPoint"/>
                    </mxGeometry>
                </mxCell>
                <mxCell id="OsnJvZsiz_xSSpyNDT6h-1012" value="" style="endArrow=none;html=1;strokeWidth=2;strokeColor=#666666;dashed=1;" edge="1" parent="OsnJvZsiz_xSSpyNDT6h-1023">
                    <mxGeometry width="50" height="50" relative="1" as="geometry">
                        <mxPoint x="560" y="39" as="sourcePoint"/>
                        <mxPoint x="560" as="targetPoint"/>
                    </mxGeometry>
                </mxCell>
                <mxCell id="OsnJvZsiz_xSSpyNDT6h-1013" value="" style="endArrow=none;dashed=1;html=1;strokeWidth=1;strokeColor=#666666;" edge="1" parent="OsnJvZsiz_xSSpyNDT6h-1023">
                    <mxGeometry width="50" height="50" relative="1" as="geometry">
                        <mxPoint x="570.48" y="39" as="sourcePoint"/>
                        <mxPoint x="570.48" as="targetPoint"/>
                    </mxGeometry>
                </mxCell>
                <mxCell id="OsnJvZsiz_xSSpyNDT6h-1014" value="" style="endArrow=none;dashed=1;html=1;strokeWidth=1;strokeColor=#666666;" edge="1" parent="OsnJvZsiz_xSSpyNDT6h-1023">
                    <mxGeometry width="50" height="50" relative="1" as="geometry">
                        <mxPoint x="580.24" y="39" as="sourcePoint"/>
                        <mxPoint x="580.24" as="targetPoint"/>
                    </mxGeometry>
                </mxCell>
                <mxCell id="OsnJvZsiz_xSSpyNDT6h-1015" value="" style="endArrow=none;dashed=1;html=1;strokeWidth=1;strokeColor=#666666;" edge="1" parent="OsnJvZsiz_xSSpyNDT6h-1023">
                    <mxGeometry width="50" height="50" relative="1" as="geometry">
                        <mxPoint x="590.48" y="39" as="sourcePoint"/>
                        <mxPoint x="590.48" as="targetPoint"/>
                    </mxGeometry>
                </mxCell>
                <mxCell id="OsnJvZsiz_xSSpyNDT6h-1016" value="" style="endArrow=none;html=1;strokeWidth=2;strokeColor=#666666;dashed=1;" edge="1" parent="OsnJvZsiz_xSSpyNDT6h-1023">
                    <mxGeometry width="50" height="50" relative="1" as="geometry">
                        <mxPoint x="600" y="39" as="sourcePoint"/>
                        <mxPoint x="600" as="targetPoint"/>
                    </mxGeometry>
                </mxCell>
                <mxCell id="OsnJvZsiz_xSSpyNDT6h-1017" value="" style="endArrow=none;dashed=1;html=1;strokeWidth=1;strokeColor=#666666;" edge="1" parent="OsnJvZsiz_xSSpyNDT6h-1023">
                    <mxGeometry width="50" height="50" relative="1" as="geometry">
                        <mxPoint x="610.48" y="39" as="sourcePoint"/>
                        <mxPoint x="610.48" as="targetPoint"/>
                    </mxGeometry>
                </mxCell>
                <mxCell id="OsnJvZsiz_xSSpyNDT6h-1018" value="" style="endArrow=none;dashed=1;html=1;strokeWidth=1;strokeColor=#666666;" edge="1" parent="OsnJvZsiz_xSSpyNDT6h-1023">
                    <mxGeometry width="50" height="50" relative="1" as="geometry">
                        <mxPoint x="620.24" y="39" as="sourcePoint"/>
                        <mxPoint x="620.24" as="targetPoint"/>
                    </mxGeometry>
                </mxCell>
                <mxCell id="OsnJvZsiz_xSSpyNDT6h-1019" value="" style="endArrow=none;dashed=1;html=1;strokeWidth=1;strokeColor=#666666;" edge="1" parent="OsnJvZsiz_xSSpyNDT6h-1023">
                    <mxGeometry width="50" height="50" relative="1" as="geometry">
                        <mxPoint x="630.48" y="39" as="sourcePoint"/>
                        <mxPoint x="630.48" as="targetPoint"/>
                    </mxGeometry>
                </mxCell>
                <mxCell id="OsnJvZsiz_xSSpyNDT6h-1024" value="" style="endArrow=none;html=1;fillColor=#dae8fc;strokeColor=#6c8ebf;rounded=0;curved=0;" edge="1" parent="1">
                    <mxGeometry width="50" height="50" relative="1" as="geometry">
                        <mxPoint x="80" y="50" as="sourcePoint"/>
                        <mxPoint x="110" y="70" as="targetPoint"/>
                        <Array as="points">
                            <mxPoint x="85" y="70"/>
                        </Array>
                    </mxGeometry>
                </mxCell>
                <mxCell id="OsnJvZsiz_xSSpyNDT6h-1026" value="" style="group" vertex="1" connectable="0" parent="1">
                    <mxGeometry x="110" y="40" width="410" height="80" as="geometry"/>
                </mxCell>
                <mxCell id="OsnJvZsiz_xSSpyNDT6h-646" value="SCL" style="rounded=0;whiteSpace=wrap;html=1;fillColor=#f8cecc;strokeColor=none;fontSize=7;" vertex="1" parent="OsnJvZsiz_xSSpyNDT6h-1026">
                    <mxGeometry x="300" width="25" height="80" as="geometry"/>
                </mxCell>
                <mxCell id="OsnJvZsiz_xSSpyNDT6h-645" value="SDA" style="rounded=0;whiteSpace=wrap;html=1;fontSize=6;fillColor=#d5e8d4;strokeColor=none;" vertex="1" parent="OsnJvZsiz_xSSpyNDT6h-1026">
                    <mxGeometry x="325" width="15" height="80" as="geometry"/>
                </mxCell>
                <mxCell id="OsnJvZsiz_xSSpyNDT6h-585" value="SDA" style="rounded=0;whiteSpace=wrap;html=1;fontSize=6;fillColor=#d5e8d4;strokeColor=none;" vertex="1" parent="OsnJvZsiz_xSSpyNDT6h-1026">
                    <mxGeometry x="85" width="15" height="80" as="geometry"/>
                </mxCell>
                <mxCell id="OsnJvZsiz_xSSpyNDT6h-656" value="SCL" style="rounded=0;whiteSpace=wrap;html=1;fillColor=#f8cecc;strokeColor=none;fontSize=7;container=0;" vertex="1" parent="OsnJvZsiz_xSSpyNDT6h-1026">
                    <mxGeometry x="340" width="25" height="80" as="geometry"/>
                </mxCell>
                <mxCell id="OsnJvZsiz_xSSpyNDT6h-654" value="" style="endArrow=none;html=1;fillColor=#fff2cc;strokeColor=#d6b656;" edge="1" parent="OsnJvZsiz_xSSpyNDT6h-1026">
                    <mxGeometry width="50" height="50" relative="1" as="geometry">
                        <mxPoint x="330" y="70" as="sourcePoint"/>
                        <mxPoint x="370" y="70" as="targetPoint"/>
                        <Array as="points">
                            <mxPoint x="340" y="70"/>
                            <mxPoint x="350" y="50"/>
                            <mxPoint x="360" y="50"/>
                            <mxPoint x="365" y="70"/>
                        </Array>
                    </mxGeometry>
                </mxCell>
                <mxCell id="OsnJvZsiz_xSSpyNDT6h-655" value="" style="endArrow=none;html=1;rounded=0;curved=0;fillColor=#fff2cc;strokeColor=#d6b656;" edge="1" parent="OsnJvZsiz_xSSpyNDT6h-1026">
                    <mxGeometry width="50" height="50" relative="1" as="geometry">
                        <mxPoint x="330" y="70" as="sourcePoint"/>
                        <mxPoint x="370" y="70" as="targetPoint"/>
                        <Array as="points">
                            <mxPoint x="340" y="70"/>
                            <mxPoint x="340" y="50"/>
                            <mxPoint x="360" y="50"/>
                            <mxPoint x="360" y="70"/>
                        </Array>
                    </mxGeometry>
                </mxCell>
                <mxCell id="OsnJvZsiz_xSSpyNDT6h-657" value="" style="endArrow=none;html=1;fillColor=#dae8fc;strokeColor=#6c8ebf;" edge="1" parent="OsnJvZsiz_xSSpyNDT6h-1026">
                    <mxGeometry width="50" height="50" relative="1" as="geometry">
                        <mxPoint x="330" y="10" as="sourcePoint"/>
                        <mxPoint x="370" y="10" as="targetPoint"/>
                    </mxGeometry>
                </mxCell>
                <mxCell id="OsnJvZsiz_xSSpyNDT6h-658" value="" style="endArrow=none;html=1;fillColor=#dae8fc;strokeColor=#6c8ebf;rounded=0;curved=0;" edge="1" parent="OsnJvZsiz_xSSpyNDT6h-1026">
                    <mxGeometry width="50" height="50" relative="1" as="geometry">
                        <mxPoint x="320" y="30" as="sourcePoint"/>
                        <mxPoint x="410" y="10" as="targetPoint"/>
                        <Array as="points">
                            <mxPoint x="330" y="30"/>
                            <mxPoint x="340" y="10"/>
                        </Array>
                    </mxGeometry>
                </mxCell>
                <mxCell id="OsnJvZsiz_xSSpyNDT6h-1020" value="ACK" style="text;html=1;align=center;verticalAlign=middle;whiteSpace=wrap;rounded=0;" vertex="1" parent="OsnJvZsiz_xSSpyNDT6h-1026">
                    <mxGeometry x="330" width="40" height="10" as="geometry"/>
                </mxCell>
                <mxCell id="OsnJvZsiz_xSSpyNDT6h-1021" value="HOLD" style="text;html=1;align=center;verticalAlign=middle;whiteSpace=wrap;rounded=0;" vertex="1" parent="OsnJvZsiz_xSSpyNDT6h-1026">
                    <mxGeometry x="370" width="40" height="10" as="geometry"/>
                </mxCell>
                <mxCell id="OsnJvZsiz_xSSpyNDT6h-1022" value="" style="endArrow=none;html=1;fillColor=#fff2cc;strokeColor=#d6b656;" edge="1" parent="OsnJvZsiz_xSSpyNDT6h-1026">
                    <mxGeometry width="50" height="50" relative="1" as="geometry">
                        <mxPoint x="370" y="70" as="sourcePoint"/>
                        <mxPoint x="410" y="70" as="targetPoint"/>
                    </mxGeometry>
                </mxCell>
                <mxCell id="OsnJvZsiz_xSSpyNDT6h-574" value="SDA" style="rounded=0;whiteSpace=wrap;html=1;fontSize=6;fillColor=#d5e8d4;strokeColor=none;" vertex="1" parent="OsnJvZsiz_xSSpyNDT6h-1026">
                    <mxGeometry x="45" width="15" height="80" as="geometry"/>
                </mxCell>
                <mxCell id="OsnJvZsiz_xSSpyNDT6h-575" value="SCL" style="rounded=0;whiteSpace=wrap;html=1;fillColor=#f8cecc;strokeColor=none;fontSize=7;" vertex="1" parent="OsnJvZsiz_xSSpyNDT6h-1026">
                    <mxGeometry x="20" width="25" height="80" as="geometry"/>
                </mxCell>
                <mxCell id="OsnJvZsiz_xSSpyNDT6h-576" value="" style="endArrow=none;html=1;fillColor=#fff2cc;strokeColor=#d6b656;" edge="1" parent="OsnJvZsiz_xSSpyNDT6h-1026">
                    <mxGeometry width="50" height="50" relative="1" as="geometry">
                        <mxPoint x="10" y="70" as="sourcePoint"/>
                        <mxPoint x="50" y="70" as="targetPoint"/>
                        <Array as="points">
                            <mxPoint x="20" y="70"/>
                            <mxPoint x="30" y="50"/>
                            <mxPoint x="40" y="50"/>
                            <mxPoint x="45" y="70"/>
                        </Array>
                    </mxGeometry>
                </mxCell>
                <mxCell id="OsnJvZsiz_xSSpyNDT6h-577" value="" style="endArrow=none;html=1;fillColor=#dae8fc;strokeColor=#6c8ebf;rounded=0;curved=0;" edge="1" parent="OsnJvZsiz_xSSpyNDT6h-1026">
                    <mxGeometry width="50" height="50" relative="1" as="geometry">
                        <mxPoint y="30" as="sourcePoint"/>
                        <mxPoint x="50" y="10" as="targetPoint"/>
                        <Array as="points">
                            <mxPoint x="10" y="30"/>
                            <mxPoint x="20" y="10"/>
                        </Array>
                    </mxGeometry>
                </mxCell>
                <mxCell id="OsnJvZsiz_xSSpyNDT6h-579" value="" style="endArrow=none;html=1;rounded=0;curved=0;fillColor=#fff2cc;strokeColor=#d6b656;" edge="1" parent="OsnJvZsiz_xSSpyNDT6h-1026">
                    <mxGeometry width="50" height="50" relative="1" as="geometry">
                        <mxPoint x="10" y="70" as="sourcePoint"/>
                        <mxPoint x="50" y="70" as="targetPoint"/>
                        <Array as="points">
                            <mxPoint x="20" y="70"/>
                            <mxPoint x="20" y="50"/>
                            <mxPoint x="40" y="50"/>
                            <mxPoint x="40" y="70"/>
                        </Array>
                    </mxGeometry>
                </mxCell>
                <mxCell id="OsnJvZsiz_xSSpyNDT6h-581" value="" style="endArrow=none;html=1;fillColor=#dae8fc;strokeColor=#6c8ebf;" edge="1" parent="OsnJvZsiz_xSSpyNDT6h-1026">
                    <mxGeometry width="50" height="50" relative="1" as="geometry">
                        <mxPoint y="30" as="sourcePoint"/>
                        <mxPoint x="40" y="30" as="targetPoint"/>
                    </mxGeometry>
                </mxCell>
                <mxCell id="OsnJvZsiz_xSSpyNDT6h-659" value="MSB" style="text;html=1;align=center;verticalAlign=middle;whiteSpace=wrap;rounded=0;" vertex="1" parent="OsnJvZsiz_xSSpyNDT6h-1026">
                    <mxGeometry x="10" width="40" height="10" as="geometry"/>
                </mxCell>
                <mxCell id="OsnJvZsiz_xSSpyNDT6h-595" value="SDA" style="rounded=0;whiteSpace=wrap;html=1;fontSize=6;fillColor=#d5e8d4;strokeColor=none;" vertex="1" parent="OsnJvZsiz_xSSpyNDT6h-1026">
                    <mxGeometry x="125" width="15" height="80" as="geometry"/>
                </mxCell>
                <mxCell id="OsnJvZsiz_xSSpyNDT6h-596" value="SCL" style="rounded=0;whiteSpace=wrap;html=1;fillColor=#f8cecc;strokeColor=none;fontSize=7;" vertex="1" parent="OsnJvZsiz_xSSpyNDT6h-1026">
                    <mxGeometry x="100" width="25" height="80" as="geometry"/>
                </mxCell>
                <mxCell id="OsnJvZsiz_xSSpyNDT6h-597" value="" style="endArrow=none;html=1;fillColor=#fff2cc;strokeColor=#d6b656;" edge="1" parent="OsnJvZsiz_xSSpyNDT6h-1026">
                    <mxGeometry width="50" height="50" relative="1" as="geometry">
                        <mxPoint x="90" y="70" as="sourcePoint"/>
                        <mxPoint x="130" y="70" as="targetPoint"/>
                        <Array as="points">
                            <mxPoint x="100" y="70"/>
                            <mxPoint x="110" y="50"/>
                            <mxPoint x="120" y="50"/>
                            <mxPoint x="125" y="70"/>
                        </Array>
                    </mxGeometry>
                </mxCell>
                <mxCell id="OsnJvZsiz_xSSpyNDT6h-598" value="" style="endArrow=none;html=1;fillColor=#dae8fc;strokeColor=#6c8ebf;rounded=0;curved=0;" edge="1" parent="OsnJvZsiz_xSSpyNDT6h-1026">
                    <mxGeometry width="50" height="50" relative="1" as="geometry">
                        <mxPoint x="80" y="30" as="sourcePoint"/>
                        <mxPoint x="130" y="10" as="targetPoint"/>
                        <Array as="points">
                            <mxPoint x="90" y="30"/>
                            <mxPoint x="100" y="10"/>
                        </Array>
                    </mxGeometry>
                </mxCell>
                <mxCell id="OsnJvZsiz_xSSpyNDT6h-599" value="" style="endArrow=none;html=1;fillColor=#dae8fc;strokeColor=#6c8ebf;rounded=0;curved=0;" edge="1" parent="OsnJvZsiz_xSSpyNDT6h-1026">
                    <mxGeometry width="50" height="50" relative="1" as="geometry">
                        <mxPoint x="80" y="10" as="sourcePoint"/>
                        <mxPoint x="130" y="30" as="targetPoint"/>
                        <Array as="points">
                            <mxPoint x="90" y="10"/>
                            <mxPoint x="95" y="30"/>
                        </Array>
                    </mxGeometry>
                </mxCell>
                <mxCell id="OsnJvZsiz_xSSpyNDT6h-600" value="" style="endArrow=none;html=1;rounded=0;curved=0;fillColor=#fff2cc;strokeColor=#d6b656;" edge="1" parent="OsnJvZsiz_xSSpyNDT6h-1026">
                    <mxGeometry width="50" height="50" relative="1" as="geometry">
                        <mxPoint x="90" y="70" as="sourcePoint"/>
                        <mxPoint x="130" y="70" as="targetPoint"/>
                        <Array as="points">
                            <mxPoint x="100" y="70"/>
                            <mxPoint x="100" y="50"/>
                            <mxPoint x="120" y="50"/>
                            <mxPoint x="120" y="70"/>
                        </Array>
                    </mxGeometry>
                </mxCell>
                <mxCell id="OsnJvZsiz_xSSpyNDT6h-601" value="" style="endArrow=none;html=1;fillColor=#dae8fc;strokeColor=#6c8ebf;" edge="1" parent="OsnJvZsiz_xSSpyNDT6h-1026">
                    <mxGeometry width="50" height="50" relative="1" as="geometry">
                        <mxPoint x="80" y="10" as="sourcePoint"/>
                        <mxPoint x="110" y="10" as="targetPoint"/>
                    </mxGeometry>
                </mxCell>
                <mxCell id="OsnJvZsiz_xSSpyNDT6h-602" value="" style="endArrow=none;html=1;fillColor=#dae8fc;strokeColor=#6c8ebf;" edge="1" parent="OsnJvZsiz_xSSpyNDT6h-1026">
                    <mxGeometry width="50" height="50" relative="1" as="geometry">
                        <mxPoint x="80" y="30" as="sourcePoint"/>
                        <mxPoint x="110" y="30" as="targetPoint"/>
                    </mxGeometry>
                </mxCell>
                <mxCell id="OsnJvZsiz_xSSpyNDT6h-605" value="SDA" style="rounded=0;whiteSpace=wrap;html=1;fontSize=6;fillColor=#d5e8d4;strokeColor=none;" vertex="1" parent="OsnJvZsiz_xSSpyNDT6h-1026">
                    <mxGeometry x="165" width="15" height="80" as="geometry"/>
                </mxCell>
                <mxCell id="OsnJvZsiz_xSSpyNDT6h-606" value="SCL" style="rounded=0;whiteSpace=wrap;html=1;fillColor=#f8cecc;strokeColor=none;fontSize=7;" vertex="1" parent="OsnJvZsiz_xSSpyNDT6h-1026">
                    <mxGeometry x="140" width="25" height="80" as="geometry"/>
                </mxCell>
                <mxCell id="OsnJvZsiz_xSSpyNDT6h-607" value="" style="endArrow=none;html=1;fillColor=#fff2cc;strokeColor=#d6b656;" edge="1" parent="OsnJvZsiz_xSSpyNDT6h-1026">
                    <mxGeometry width="50" height="50" relative="1" as="geometry">
                        <mxPoint x="130" y="70" as="sourcePoint"/>
                        <mxPoint x="170" y="70" as="targetPoint"/>
                        <Array as="points">
                            <mxPoint x="140" y="70"/>
                            <mxPoint x="150" y="50"/>
                            <mxPoint x="160" y="50"/>
                            <mxPoint x="165" y="70"/>
                        </Array>
                    </mxGeometry>
                </mxCell>
                <mxCell id="OsnJvZsiz_xSSpyNDT6h-608" value="" style="endArrow=none;html=1;fillColor=#dae8fc;strokeColor=#6c8ebf;rounded=0;curved=0;" edge="1" parent="OsnJvZsiz_xSSpyNDT6h-1026">
                    <mxGeometry width="50" height="50" relative="1" as="geometry">
                        <mxPoint x="120" y="30" as="sourcePoint"/>
                        <mxPoint x="170" y="10" as="targetPoint"/>
                        <Array as="points">
                            <mxPoint x="130" y="30"/>
                            <mxPoint x="140" y="10"/>
                        </Array>
                    </mxGeometry>
                </mxCell>
                <mxCell id="OsnJvZsiz_xSSpyNDT6h-609" value="" style="endArrow=none;html=1;fillColor=#dae8fc;strokeColor=#6c8ebf;rounded=0;curved=0;" edge="1" parent="OsnJvZsiz_xSSpyNDT6h-1026">
                    <mxGeometry width="50" height="50" relative="1" as="geometry">
                        <mxPoint x="120" y="10" as="sourcePoint"/>
                        <mxPoint x="170" y="30" as="targetPoint"/>
                        <Array as="points">
                            <mxPoint x="130" y="10"/>
                            <mxPoint x="135" y="30"/>
                        </Array>
                    </mxGeometry>
                </mxCell>
                <mxCell id="OsnJvZsiz_xSSpyNDT6h-610" value="" style="endArrow=none;html=1;rounded=0;curved=0;fillColor=#fff2cc;strokeColor=#d6b656;" edge="1" parent="OsnJvZsiz_xSSpyNDT6h-1026">
                    <mxGeometry width="50" height="50" relative="1" as="geometry">
                        <mxPoint x="130" y="70" as="sourcePoint"/>
                        <mxPoint x="170" y="70" as="targetPoint"/>
                        <Array as="points">
                            <mxPoint x="140" y="70"/>
                            <mxPoint x="140" y="50"/>
                            <mxPoint x="160" y="50"/>
                            <mxPoint x="160" y="70"/>
                        </Array>
                    </mxGeometry>
                </mxCell>
                <mxCell id="OsnJvZsiz_xSSpyNDT6h-611" value="" style="endArrow=none;html=1;fillColor=#dae8fc;strokeColor=#6c8ebf;" edge="1" parent="OsnJvZsiz_xSSpyNDT6h-1026">
                    <mxGeometry width="50" height="50" relative="1" as="geometry">
                        <mxPoint x="120" y="10" as="sourcePoint"/>
                        <mxPoint x="150" y="10" as="targetPoint"/>
                    </mxGeometry>
                </mxCell>
                <mxCell id="OsnJvZsiz_xSSpyNDT6h-612" value="" style="endArrow=none;html=1;fillColor=#dae8fc;strokeColor=#6c8ebf;" edge="1" parent="OsnJvZsiz_xSSpyNDT6h-1026">
                    <mxGeometry width="50" height="50" relative="1" as="geometry">
                        <mxPoint x="120" y="30" as="sourcePoint"/>
                        <mxPoint x="150" y="30" as="targetPoint"/>
                    </mxGeometry>
                </mxCell>
                <mxCell id="OsnJvZsiz_xSSpyNDT6h-615" value="SDA" style="rounded=0;whiteSpace=wrap;html=1;fontSize=6;fillColor=#d5e8d4;strokeColor=none;" vertex="1" parent="OsnJvZsiz_xSSpyNDT6h-1026">
                    <mxGeometry x="205" width="15" height="80" as="geometry"/>
                </mxCell>
                <mxCell id="OsnJvZsiz_xSSpyNDT6h-616" value="SCL" style="rounded=0;whiteSpace=wrap;html=1;fillColor=#f8cecc;strokeColor=none;fontSize=7;" vertex="1" parent="OsnJvZsiz_xSSpyNDT6h-1026">
                    <mxGeometry x="180" width="25" height="80" as="geometry"/>
                </mxCell>
                <mxCell id="OsnJvZsiz_xSSpyNDT6h-617" value="" style="endArrow=none;html=1;fillColor=#fff2cc;strokeColor=#d6b656;" edge="1" parent="OsnJvZsiz_xSSpyNDT6h-1026">
                    <mxGeometry width="50" height="50" relative="1" as="geometry">
                        <mxPoint x="170" y="70" as="sourcePoint"/>
                        <mxPoint x="210" y="70" as="targetPoint"/>
                        <Array as="points">
                            <mxPoint x="180" y="70"/>
                            <mxPoint x="190" y="50"/>
                            <mxPoint x="200" y="50"/>
                            <mxPoint x="205" y="70"/>
                        </Array>
                    </mxGeometry>
                </mxCell>
                <mxCell id="OsnJvZsiz_xSSpyNDT6h-618" value="" style="endArrow=none;html=1;fillColor=#dae8fc;strokeColor=#6c8ebf;rounded=0;curved=0;" edge="1" parent="OsnJvZsiz_xSSpyNDT6h-1026">
                    <mxGeometry width="50" height="50" relative="1" as="geometry">
                        <mxPoint x="160" y="30" as="sourcePoint"/>
                        <mxPoint x="210" y="10" as="targetPoint"/>
                        <Array as="points">
                            <mxPoint x="170" y="30"/>
                            <mxPoint x="180" y="10"/>
                        </Array>
                    </mxGeometry>
                </mxCell>
                <mxCell id="OsnJvZsiz_xSSpyNDT6h-619" value="" style="endArrow=none;html=1;fillColor=#dae8fc;strokeColor=#6c8ebf;rounded=0;curved=0;" edge="1" parent="OsnJvZsiz_xSSpyNDT6h-1026">
                    <mxGeometry width="50" height="50" relative="1" as="geometry">
                        <mxPoint x="160" y="10" as="sourcePoint"/>
                        <mxPoint x="210" y="30" as="targetPoint"/>
                        <Array as="points">
                            <mxPoint x="170" y="10"/>
                            <mxPoint x="175" y="30"/>
                        </Array>
                    </mxGeometry>
                </mxCell>
                <mxCell id="OsnJvZsiz_xSSpyNDT6h-620" value="" style="endArrow=none;html=1;rounded=0;curved=0;fillColor=#fff2cc;strokeColor=#d6b656;" edge="1" parent="OsnJvZsiz_xSSpyNDT6h-1026">
                    <mxGeometry width="50" height="50" relative="1" as="geometry">
                        <mxPoint x="170" y="70" as="sourcePoint"/>
                        <mxPoint x="210" y="70" as="targetPoint"/>
                        <Array as="points">
                            <mxPoint x="180" y="70"/>
                            <mxPoint x="180" y="50"/>
                            <mxPoint x="200" y="50"/>
                            <mxPoint x="200" y="70"/>
                        </Array>
                    </mxGeometry>
                </mxCell>
                <mxCell id="OsnJvZsiz_xSSpyNDT6h-621" value="" style="endArrow=none;html=1;fillColor=#dae8fc;strokeColor=#6c8ebf;" edge="1" parent="OsnJvZsiz_xSSpyNDT6h-1026">
                    <mxGeometry width="50" height="50" relative="1" as="geometry">
                        <mxPoint x="160" y="10" as="sourcePoint"/>
                        <mxPoint x="190" y="10" as="targetPoint"/>
                    </mxGeometry>
                </mxCell>
                <mxCell id="OsnJvZsiz_xSSpyNDT6h-622" value="" style="endArrow=none;html=1;fillColor=#dae8fc;strokeColor=#6c8ebf;" edge="1" parent="OsnJvZsiz_xSSpyNDT6h-1026">
                    <mxGeometry width="50" height="50" relative="1" as="geometry">
                        <mxPoint x="160" y="30" as="sourcePoint"/>
                        <mxPoint x="190" y="30" as="targetPoint"/>
                    </mxGeometry>
                </mxCell>
                <mxCell id="OsnJvZsiz_xSSpyNDT6h-586" value="SCL" style="rounded=0;whiteSpace=wrap;html=1;fillColor=#f8cecc;strokeColor=none;fontSize=7;" vertex="1" parent="OsnJvZsiz_xSSpyNDT6h-1026">
                    <mxGeometry x="60" width="25" height="80" as="geometry"/>
                </mxCell>
                <mxCell id="OsnJvZsiz_xSSpyNDT6h-587" value="" style="endArrow=none;html=1;fillColor=#fff2cc;strokeColor=#d6b656;" edge="1" parent="OsnJvZsiz_xSSpyNDT6h-1026">
                    <mxGeometry width="50" height="50" relative="1" as="geometry">
                        <mxPoint x="50" y="70" as="sourcePoint"/>
                        <mxPoint x="90" y="70" as="targetPoint"/>
                        <Array as="points">
                            <mxPoint x="60" y="70"/>
                            <mxPoint x="70" y="50"/>
                            <mxPoint x="80" y="50"/>
                            <mxPoint x="85" y="70"/>
                        </Array>
                    </mxGeometry>
                </mxCell>
                <mxCell id="OsnJvZsiz_xSSpyNDT6h-588" value="" style="endArrow=none;html=1;fillColor=#dae8fc;strokeColor=#6c8ebf;rounded=0;curved=0;" edge="1" parent="OsnJvZsiz_xSSpyNDT6h-1026">
                    <mxGeometry width="50" height="50" relative="1" as="geometry">
                        <mxPoint x="40" y="30" as="sourcePoint"/>
                        <mxPoint x="90" y="10" as="targetPoint"/>
                        <Array as="points">
                            <mxPoint x="50" y="30"/>
                            <mxPoint x="60" y="10"/>
                        </Array>
                    </mxGeometry>
                </mxCell>
                <mxCell id="OsnJvZsiz_xSSpyNDT6h-589" value="" style="endArrow=none;html=1;fillColor=#dae8fc;strokeColor=#6c8ebf;rounded=0;curved=0;" edge="1" parent="OsnJvZsiz_xSSpyNDT6h-1026">
                    <mxGeometry width="50" height="50" relative="1" as="geometry">
                        <mxPoint x="40" y="10" as="sourcePoint"/>
                        <mxPoint x="90" y="30" as="targetPoint"/>
                        <Array as="points">
                            <mxPoint x="50" y="10"/>
                            <mxPoint x="55" y="30"/>
                        </Array>
                    </mxGeometry>
                </mxCell>
                <mxCell id="OsnJvZsiz_xSSpyNDT6h-590" value="" style="endArrow=none;html=1;rounded=0;curved=0;fillColor=#fff2cc;strokeColor=#d6b656;" edge="1" parent="OsnJvZsiz_xSSpyNDT6h-1026">
                    <mxGeometry width="50" height="50" relative="1" as="geometry">
                        <mxPoint x="50" y="70" as="sourcePoint"/>
                        <mxPoint x="90" y="70" as="targetPoint"/>
                        <Array as="points">
                            <mxPoint x="60" y="70"/>
                            <mxPoint x="60" y="50"/>
                            <mxPoint x="80" y="50"/>
                            <mxPoint x="80" y="70"/>
                        </Array>
                    </mxGeometry>
                </mxCell>
                <mxCell id="OsnJvZsiz_xSSpyNDT6h-591" value="" style="endArrow=none;html=1;fillColor=#dae8fc;strokeColor=#6c8ebf;" edge="1" parent="OsnJvZsiz_xSSpyNDT6h-1026">
                    <mxGeometry width="50" height="50" relative="1" as="geometry">
                        <mxPoint x="40" y="10" as="sourcePoint"/>
                        <mxPoint x="70" y="10" as="targetPoint"/>
                    </mxGeometry>
                </mxCell>
                <mxCell id="OsnJvZsiz_xSSpyNDT6h-592" value="" style="endArrow=none;html=1;fillColor=#dae8fc;strokeColor=#6c8ebf;" edge="1" parent="OsnJvZsiz_xSSpyNDT6h-1026">
                    <mxGeometry width="50" height="50" relative="1" as="geometry">
                        <mxPoint x="40" y="30" as="sourcePoint"/>
                        <mxPoint x="70" y="30" as="targetPoint"/>
                    </mxGeometry>
                </mxCell>
                <mxCell id="OsnJvZsiz_xSSpyNDT6h-625" value="SDA" style="rounded=0;whiteSpace=wrap;html=1;fontSize=6;fillColor=#d5e8d4;strokeColor=none;" vertex="1" parent="OsnJvZsiz_xSSpyNDT6h-1026">
                    <mxGeometry x="245" width="15" height="80" as="geometry"/>
                </mxCell>
                <mxCell id="OsnJvZsiz_xSSpyNDT6h-626" value="SCL" style="rounded=0;whiteSpace=wrap;html=1;fillColor=#f8cecc;strokeColor=none;fontSize=7;" vertex="1" parent="OsnJvZsiz_xSSpyNDT6h-1026">
                    <mxGeometry x="220" width="25" height="80" as="geometry"/>
                </mxCell>
                <mxCell id="OsnJvZsiz_xSSpyNDT6h-627" value="" style="endArrow=none;html=1;fillColor=#fff2cc;strokeColor=#d6b656;" edge="1" parent="OsnJvZsiz_xSSpyNDT6h-1026">
                    <mxGeometry width="50" height="50" relative="1" as="geometry">
                        <mxPoint x="210" y="70" as="sourcePoint"/>
                        <mxPoint x="250" y="70" as="targetPoint"/>
                        <Array as="points">
                            <mxPoint x="220" y="70"/>
                            <mxPoint x="230" y="50"/>
                            <mxPoint x="240" y="50"/>
                            <mxPoint x="245" y="70"/>
                        </Array>
                    </mxGeometry>
                </mxCell>
                <mxCell id="OsnJvZsiz_xSSpyNDT6h-628" value="" style="endArrow=none;html=1;fillColor=#dae8fc;strokeColor=#6c8ebf;rounded=0;curved=0;" edge="1" parent="OsnJvZsiz_xSSpyNDT6h-1026">
                    <mxGeometry width="50" height="50" relative="1" as="geometry">
                        <mxPoint x="200" y="30" as="sourcePoint"/>
                        <mxPoint x="250" y="10" as="targetPoint"/>
                        <Array as="points">
                            <mxPoint x="210" y="30"/>
                            <mxPoint x="220" y="10"/>
                        </Array>
                    </mxGeometry>
                </mxCell>
                <mxCell id="OsnJvZsiz_xSSpyNDT6h-629" value="" style="endArrow=none;html=1;fillColor=#dae8fc;strokeColor=#6c8ebf;rounded=0;curved=0;" edge="1" parent="OsnJvZsiz_xSSpyNDT6h-1026">
                    <mxGeometry width="50" height="50" relative="1" as="geometry">
                        <mxPoint x="200" y="10" as="sourcePoint"/>
                        <mxPoint x="250" y="30" as="targetPoint"/>
                        <Array as="points">
                            <mxPoint x="210" y="10"/>
                            <mxPoint x="215" y="30"/>
                        </Array>
                    </mxGeometry>
                </mxCell>
                <mxCell id="OsnJvZsiz_xSSpyNDT6h-630" value="" style="endArrow=none;html=1;rounded=0;curved=0;fillColor=#fff2cc;strokeColor=#d6b656;" edge="1" parent="OsnJvZsiz_xSSpyNDT6h-1026">
                    <mxGeometry width="50" height="50" relative="1" as="geometry">
                        <mxPoint x="210" y="70" as="sourcePoint"/>
                        <mxPoint x="250" y="70" as="targetPoint"/>
                        <Array as="points">
                            <mxPoint x="220" y="70"/>
                            <mxPoint x="220" y="50"/>
                            <mxPoint x="240" y="50"/>
                            <mxPoint x="240" y="70"/>
                        </Array>
                    </mxGeometry>
                </mxCell>
                <mxCell id="OsnJvZsiz_xSSpyNDT6h-631" value="" style="endArrow=none;html=1;fillColor=#dae8fc;strokeColor=#6c8ebf;" edge="1" parent="OsnJvZsiz_xSSpyNDT6h-1026">
                    <mxGeometry width="50" height="50" relative="1" as="geometry">
                        <mxPoint x="200" y="10" as="sourcePoint"/>
                        <mxPoint x="230" y="10" as="targetPoint"/>
                    </mxGeometry>
                </mxCell>
                <mxCell id="OsnJvZsiz_xSSpyNDT6h-632" value="" style="endArrow=none;html=1;fillColor=#dae8fc;strokeColor=#6c8ebf;" edge="1" parent="OsnJvZsiz_xSSpyNDT6h-1026">
                    <mxGeometry width="50" height="50" relative="1" as="geometry">
                        <mxPoint x="200" y="30" as="sourcePoint"/>
                        <mxPoint x="230" y="30" as="targetPoint"/>
                    </mxGeometry>
                </mxCell>
                <mxCell id="OsnJvZsiz_xSSpyNDT6h-635" value="SDA" style="rounded=0;whiteSpace=wrap;html=1;fontSize=6;fillColor=#d5e8d4;strokeColor=none;" vertex="1" parent="OsnJvZsiz_xSSpyNDT6h-1026">
                    <mxGeometry x="285" width="15" height="80" as="geometry"/>
                </mxCell>
                <mxCell id="OsnJvZsiz_xSSpyNDT6h-636" value="SCL" style="rounded=0;whiteSpace=wrap;html=1;fillColor=#f8cecc;strokeColor=none;fontSize=7;" vertex="1" parent="OsnJvZsiz_xSSpyNDT6h-1026">
                    <mxGeometry x="260" width="25" height="80" as="geometry"/>
                </mxCell>
                <mxCell id="OsnJvZsiz_xSSpyNDT6h-637" value="" style="endArrow=none;html=1;fillColor=#fff2cc;strokeColor=#d6b656;" edge="1" parent="OsnJvZsiz_xSSpyNDT6h-1026">
                    <mxGeometry width="50" height="50" relative="1" as="geometry">
                        <mxPoint x="250" y="70" as="sourcePoint"/>
                        <mxPoint x="290" y="70" as="targetPoint"/>
                        <Array as="points">
                            <mxPoint x="260" y="70"/>
                            <mxPoint x="270" y="50"/>
                            <mxPoint x="280" y="50"/>
                            <mxPoint x="285" y="70"/>
                        </Array>
                    </mxGeometry>
                </mxCell>
                <mxCell id="OsnJvZsiz_xSSpyNDT6h-638" value="" style="endArrow=none;html=1;fillColor=#dae8fc;strokeColor=#6c8ebf;rounded=0;curved=0;" edge="1" parent="OsnJvZsiz_xSSpyNDT6h-1026">
                    <mxGeometry width="50" height="50" relative="1" as="geometry">
                        <mxPoint x="240" y="30" as="sourcePoint"/>
                        <mxPoint x="290" y="10" as="targetPoint"/>
                        <Array as="points">
                            <mxPoint x="250" y="30"/>
                            <mxPoint x="260" y="10"/>
                        </Array>
                    </mxGeometry>
                </mxCell>
                <mxCell id="OsnJvZsiz_xSSpyNDT6h-639" value="" style="endArrow=none;html=1;fillColor=#dae8fc;strokeColor=#6c8ebf;rounded=0;curved=0;" edge="1" parent="OsnJvZsiz_xSSpyNDT6h-1026">
                    <mxGeometry width="50" height="50" relative="1" as="geometry">
                        <mxPoint x="240" y="10" as="sourcePoint"/>
                        <mxPoint x="290" y="30" as="targetPoint"/>
                        <Array as="points">
                            <mxPoint x="250" y="10"/>
                            <mxPoint x="255" y="30"/>
                        </Array>
                    </mxGeometry>
                </mxCell>
                <mxCell id="OsnJvZsiz_xSSpyNDT6h-640" value="" style="endArrow=none;html=1;rounded=0;curved=0;fillColor=#fff2cc;strokeColor=#d6b656;" edge="1" parent="OsnJvZsiz_xSSpyNDT6h-1026">
                    <mxGeometry width="50" height="50" relative="1" as="geometry">
                        <mxPoint x="250" y="70" as="sourcePoint"/>
                        <mxPoint x="290" y="70" as="targetPoint"/>
                        <Array as="points">
                            <mxPoint x="260" y="70"/>
                            <mxPoint x="260" y="50"/>
                            <mxPoint x="280" y="50"/>
                            <mxPoint x="280" y="70"/>
                        </Array>
                    </mxGeometry>
                </mxCell>
                <mxCell id="OsnJvZsiz_xSSpyNDT6h-641" value="" style="endArrow=none;html=1;fillColor=#dae8fc;strokeColor=#6c8ebf;" edge="1" parent="OsnJvZsiz_xSSpyNDT6h-1026">
                    <mxGeometry width="50" height="50" relative="1" as="geometry">
                        <mxPoint x="240" y="10" as="sourcePoint"/>
                        <mxPoint x="270" y="10" as="targetPoint"/>
                    </mxGeometry>
                </mxCell>
                <mxCell id="OsnJvZsiz_xSSpyNDT6h-642" value="" style="endArrow=none;html=1;fillColor=#dae8fc;strokeColor=#6c8ebf;" edge="1" parent="OsnJvZsiz_xSSpyNDT6h-1026">
                    <mxGeometry width="50" height="50" relative="1" as="geometry">
                        <mxPoint x="240" y="30" as="sourcePoint"/>
                        <mxPoint x="270" y="30" as="targetPoint"/>
                    </mxGeometry>
                </mxCell>
                <mxCell id="OsnJvZsiz_xSSpyNDT6h-647" value="" style="endArrow=none;html=1;fillColor=#fff2cc;strokeColor=#d6b656;" edge="1" parent="OsnJvZsiz_xSSpyNDT6h-1026">
                    <mxGeometry width="50" height="50" relative="1" as="geometry">
                        <mxPoint x="290" y="70" as="sourcePoint"/>
                        <mxPoint x="330" y="70" as="targetPoint"/>
                        <Array as="points">
                            <mxPoint x="300" y="70"/>
                            <mxPoint x="310" y="50"/>
                            <mxPoint x="320" y="50"/>
                            <mxPoint x="325" y="70"/>
                        </Array>
                    </mxGeometry>
                </mxCell>
                <mxCell id="OsnJvZsiz_xSSpyNDT6h-648" value="" style="endArrow=none;html=1;fillColor=#dae8fc;strokeColor=#6c8ebf;rounded=0;curved=0;" edge="1" parent="OsnJvZsiz_xSSpyNDT6h-1026">
                    <mxGeometry width="50" height="50" relative="1" as="geometry">
                        <mxPoint x="280" y="30" as="sourcePoint"/>
                        <mxPoint x="330" y="10" as="targetPoint"/>
                        <Array as="points">
                            <mxPoint x="290" y="30"/>
                            <mxPoint x="300" y="10"/>
                        </Array>
                    </mxGeometry>
                </mxCell>
                <mxCell id="OsnJvZsiz_xSSpyNDT6h-649" value="" style="endArrow=none;html=1;fillColor=#dae8fc;strokeColor=#6c8ebf;rounded=0;curved=0;" edge="1" parent="OsnJvZsiz_xSSpyNDT6h-1026">
                    <mxGeometry width="50" height="50" relative="1" as="geometry">
                        <mxPoint x="280" y="10" as="sourcePoint"/>
                        <mxPoint x="320" y="30" as="targetPoint"/>
                        <Array as="points">
                            <mxPoint x="290" y="10"/>
                            <mxPoint x="295" y="30"/>
                        </Array>
                    </mxGeometry>
                </mxCell>
                <mxCell id="OsnJvZsiz_xSSpyNDT6h-650" value="" style="endArrow=none;html=1;rounded=0;curved=0;fillColor=#fff2cc;strokeColor=#d6b656;" edge="1" parent="OsnJvZsiz_xSSpyNDT6h-1026">
                    <mxGeometry width="50" height="50" relative="1" as="geometry">
                        <mxPoint x="290" y="70" as="sourcePoint"/>
                        <mxPoint x="330" y="70" as="targetPoint"/>
                        <Array as="points">
                            <mxPoint x="300" y="70"/>
                            <mxPoint x="300" y="50"/>
                            <mxPoint x="320" y="50"/>
                            <mxPoint x="320" y="70"/>
                        </Array>
                    </mxGeometry>
                </mxCell>
                <mxCell id="OsnJvZsiz_xSSpyNDT6h-651" value="" style="endArrow=none;html=1;fillColor=#dae8fc;strokeColor=#6c8ebf;" edge="1" parent="OsnJvZsiz_xSSpyNDT6h-1026">
                    <mxGeometry width="50" height="50" relative="1" as="geometry">
                        <mxPoint x="280" y="10" as="sourcePoint"/>
                        <mxPoint x="310" y="10" as="targetPoint"/>
                    </mxGeometry>
                </mxCell>
                <mxCell id="OsnJvZsiz_xSSpyNDT6h-652" value="" style="endArrow=none;html=1;fillColor=#dae8fc;strokeColor=#6c8ebf;" edge="1" parent="OsnJvZsiz_xSSpyNDT6h-1026">
                    <mxGeometry width="50" height="50" relative="1" as="geometry">
                        <mxPoint x="280" y="30" as="sourcePoint"/>
                        <mxPoint x="310" y="30" as="targetPoint"/>
                    </mxGeometry>
                </mxCell>
                <mxCell id="OsnJvZsiz_xSSpyNDT6h-662" value="LSB" style="text;html=1;align=center;verticalAlign=middle;whiteSpace=wrap;rounded=0;" vertex="1" parent="OsnJvZsiz_xSSpyNDT6h-1026">
                    <mxGeometry x="290" width="40" height="10" as="geometry"/>
                </mxCell>
                <mxCell id="OsnJvZsiz_xSSpyNDT6h-1027" value="" style="group" vertex="1" connectable="0" parent="1">
                    <mxGeometry x="510" y="40" width="410" height="80" as="geometry"/>
                </mxCell>
                <mxCell id="OsnJvZsiz_xSSpyNDT6h-1028" value="SCL" style="rounded=0;whiteSpace=wrap;html=1;fillColor=#f8cecc;strokeColor=none;fontSize=7;" vertex="1" parent="OsnJvZsiz_xSSpyNDT6h-1027">
                    <mxGeometry x="300" width="25" height="80" as="geometry"/>
                </mxCell>
                <mxCell id="OsnJvZsiz_xSSpyNDT6h-1029" value="SDA" style="rounded=0;whiteSpace=wrap;html=1;fontSize=6;fillColor=#d5e8d4;strokeColor=none;" vertex="1" parent="OsnJvZsiz_xSSpyNDT6h-1027">
                    <mxGeometry x="325" width="15" height="80" as="geometry"/>
                </mxCell>
                <mxCell id="OsnJvZsiz_xSSpyNDT6h-1030" value="SDA" style="rounded=0;whiteSpace=wrap;html=1;fontSize=6;fillColor=#d5e8d4;strokeColor=none;" vertex="1" parent="OsnJvZsiz_xSSpyNDT6h-1027">
                    <mxGeometry x="85" width="15" height="80" as="geometry"/>
                </mxCell>
                <mxCell id="OsnJvZsiz_xSSpyNDT6h-1031" value="SCL" style="rounded=0;whiteSpace=wrap;html=1;fillColor=#f8cecc;strokeColor=none;fontSize=7;container=0;" vertex="1" parent="OsnJvZsiz_xSSpyNDT6h-1027">
                    <mxGeometry x="340" width="25" height="80" as="geometry"/>
                </mxCell>
                <mxCell id="OsnJvZsiz_xSSpyNDT6h-1032" value="" style="endArrow=none;html=1;fillColor=#fff2cc;strokeColor=#d6b656;" edge="1" parent="OsnJvZsiz_xSSpyNDT6h-1027">
                    <mxGeometry width="50" height="50" relative="1" as="geometry">
                        <mxPoint x="330" y="70" as="sourcePoint"/>
                        <mxPoint x="370" y="70" as="targetPoint"/>
                        <Array as="points">
                            <mxPoint x="340" y="70"/>
                            <mxPoint x="350" y="50"/>
                            <mxPoint x="360" y="50"/>
                            <mxPoint x="365" y="70"/>
                        </Array>
                    </mxGeometry>
                </mxCell>
                <mxCell id="OsnJvZsiz_xSSpyNDT6h-1033" value="" style="endArrow=none;html=1;rounded=0;curved=0;fillColor=#fff2cc;strokeColor=#d6b656;" edge="1" parent="OsnJvZsiz_xSSpyNDT6h-1027">
                    <mxGeometry width="50" height="50" relative="1" as="geometry">
                        <mxPoint x="330" y="70" as="sourcePoint"/>
                        <mxPoint x="370" y="70" as="targetPoint"/>
                        <Array as="points">
                            <mxPoint x="340" y="70"/>
                            <mxPoint x="340" y="50"/>
                            <mxPoint x="360" y="50"/>
                            <mxPoint x="360" y="70"/>
                        </Array>
                    </mxGeometry>
                </mxCell>
                <mxCell id="OsnJvZsiz_xSSpyNDT6h-1034" value="" style="endArrow=none;html=1;fillColor=#dae8fc;strokeColor=#6c8ebf;" edge="1" parent="OsnJvZsiz_xSSpyNDT6h-1027">
                    <mxGeometry width="50" height="50" relative="1" as="geometry">
                        <mxPoint x="330" y="10" as="sourcePoint"/>
                        <mxPoint x="370" y="10" as="targetPoint"/>
                    </mxGeometry>
                </mxCell>
                <mxCell id="OsnJvZsiz_xSSpyNDT6h-1035" value="" style="endArrow=none;html=1;fillColor=#dae8fc;strokeColor=#6c8ebf;rounded=0;curved=0;" edge="1" parent="OsnJvZsiz_xSSpyNDT6h-1027">
                    <mxGeometry width="50" height="50" relative="1" as="geometry">
                        <mxPoint x="320" y="30" as="sourcePoint"/>
                        <mxPoint x="410" y="10" as="targetPoint"/>
                        <Array as="points">
                            <mxPoint x="330" y="30"/>
                            <mxPoint x="340" y="10"/>
                        </Array>
                    </mxGeometry>
                </mxCell>
                <mxCell id="OsnJvZsiz_xSSpyNDT6h-1036" value="ACK" style="text;html=1;align=center;verticalAlign=middle;whiteSpace=wrap;rounded=0;" vertex="1" parent="OsnJvZsiz_xSSpyNDT6h-1027">
                    <mxGeometry x="330" width="40" height="10" as="geometry"/>
                </mxCell>
                <mxCell id="OsnJvZsiz_xSSpyNDT6h-1037" value="HOLD" style="text;html=1;align=center;verticalAlign=middle;whiteSpace=wrap;rounded=0;" vertex="1" parent="OsnJvZsiz_xSSpyNDT6h-1027">
                    <mxGeometry x="370" width="40" height="10" as="geometry"/>
                </mxCell>
                <mxCell id="OsnJvZsiz_xSSpyNDT6h-1038" value="" style="endArrow=none;html=1;fillColor=#fff2cc;strokeColor=#d6b656;" edge="1" parent="OsnJvZsiz_xSSpyNDT6h-1027">
                    <mxGeometry width="50" height="50" relative="1" as="geometry">
                        <mxPoint x="370" y="70" as="sourcePoint"/>
                        <mxPoint x="410" y="70" as="targetPoint"/>
                    </mxGeometry>
                </mxCell>
                <mxCell id="OsnJvZsiz_xSSpyNDT6h-1039" value="SDA" style="rounded=0;whiteSpace=wrap;html=1;fontSize=6;fillColor=#d5e8d4;strokeColor=none;" vertex="1" parent="OsnJvZsiz_xSSpyNDT6h-1027">
                    <mxGeometry x="45" width="15" height="80" as="geometry"/>
                </mxCell>
                <mxCell id="OsnJvZsiz_xSSpyNDT6h-1040" value="SCL" style="rounded=0;whiteSpace=wrap;html=1;fillColor=#f8cecc;strokeColor=none;fontSize=7;" vertex="1" parent="OsnJvZsiz_xSSpyNDT6h-1027">
                    <mxGeometry x="20" width="25" height="80" as="geometry"/>
                </mxCell>
                <mxCell id="OsnJvZsiz_xSSpyNDT6h-1041" value="" style="endArrow=none;html=1;fillColor=#fff2cc;strokeColor=#d6b656;" edge="1" parent="OsnJvZsiz_xSSpyNDT6h-1027">
                    <mxGeometry width="50" height="50" relative="1" as="geometry">
                        <mxPoint x="10" y="70" as="sourcePoint"/>
                        <mxPoint x="50" y="70" as="targetPoint"/>
                        <Array as="points">
                            <mxPoint x="20" y="70"/>
                            <mxPoint x="30" y="50"/>
                            <mxPoint x="40" y="50"/>
                            <mxPoint x="45" y="70"/>
                        </Array>
                    </mxGeometry>
                </mxCell>
                <mxCell id="OsnJvZsiz_xSSpyNDT6h-1043" value="" style="endArrow=none;html=1;rounded=0;curved=0;fillColor=#fff2cc;strokeColor=#d6b656;" edge="1" parent="OsnJvZsiz_xSSpyNDT6h-1027">
                    <mxGeometry width="50" height="50" relative="1" as="geometry">
                        <mxPoint x="10" y="70" as="sourcePoint"/>
                        <mxPoint x="50" y="70" as="targetPoint"/>
                        <Array as="points">
                            <mxPoint x="20" y="70"/>
                            <mxPoint x="20" y="50"/>
                            <mxPoint x="40" y="50"/>
                            <mxPoint x="40" y="70"/>
                        </Array>
                    </mxGeometry>
                </mxCell>
                <mxCell id="OsnJvZsiz_xSSpyNDT6h-1044" value="" style="endArrow=none;html=1;fillColor=#dae8fc;strokeColor=#6c8ebf;" edge="1" parent="OsnJvZsiz_xSSpyNDT6h-1027">
                    <mxGeometry width="50" height="50" relative="1" as="geometry">
                        <mxPoint y="10" as="sourcePoint"/>
                        <mxPoint x="40" y="10" as="targetPoint"/>
                    </mxGeometry>
                </mxCell>
                <mxCell id="OsnJvZsiz_xSSpyNDT6h-1045" value="MSB" style="text;html=1;align=center;verticalAlign=middle;whiteSpace=wrap;rounded=0;" vertex="1" parent="OsnJvZsiz_xSSpyNDT6h-1027">
                    <mxGeometry x="10" width="40" height="10" as="geometry"/>
                </mxCell>
                <mxCell id="OsnJvZsiz_xSSpyNDT6h-1046" value="SDA" style="rounded=0;whiteSpace=wrap;html=1;fontSize=6;fillColor=#d5e8d4;strokeColor=none;" vertex="1" parent="OsnJvZsiz_xSSpyNDT6h-1027">
                    <mxGeometry x="125" width="15" height="80" as="geometry"/>
                </mxCell>
                <mxCell id="OsnJvZsiz_xSSpyNDT6h-1047" value="SCL" style="rounded=0;whiteSpace=wrap;html=1;fillColor=#f8cecc;strokeColor=none;fontSize=7;" vertex="1" parent="OsnJvZsiz_xSSpyNDT6h-1027">
                    <mxGeometry x="100" width="25" height="80" as="geometry"/>
                </mxCell>
                <mxCell id="OsnJvZsiz_xSSpyNDT6h-1048" value="" style="endArrow=none;html=1;fillColor=#fff2cc;strokeColor=#d6b656;" edge="1" parent="OsnJvZsiz_xSSpyNDT6h-1027">
                    <mxGeometry width="50" height="50" relative="1" as="geometry">
                        <mxPoint x="90" y="70" as="sourcePoint"/>
                        <mxPoint x="130" y="70" as="targetPoint"/>
                        <Array as="points">
                            <mxPoint x="100" y="70"/>
                            <mxPoint x="110" y="50"/>
                            <mxPoint x="120" y="50"/>
                            <mxPoint x="125" y="70"/>
                        </Array>
                    </mxGeometry>
                </mxCell>
                <mxCell id="OsnJvZsiz_xSSpyNDT6h-1049" value="" style="endArrow=none;html=1;fillColor=#dae8fc;strokeColor=#6c8ebf;rounded=0;curved=0;" edge="1" parent="OsnJvZsiz_xSSpyNDT6h-1027">
                    <mxGeometry width="50" height="50" relative="1" as="geometry">
                        <mxPoint x="80" y="30" as="sourcePoint"/>
                        <mxPoint x="130" y="10" as="targetPoint"/>
                        <Array as="points">
                            <mxPoint x="90" y="30"/>
                            <mxPoint x="100" y="10"/>
                        </Array>
                    </mxGeometry>
                </mxCell>
                <mxCell id="OsnJvZsiz_xSSpyNDT6h-1050" value="" style="endArrow=none;html=1;fillColor=#dae8fc;strokeColor=#6c8ebf;rounded=0;curved=0;" edge="1" parent="OsnJvZsiz_xSSpyNDT6h-1027">
                    <mxGeometry width="50" height="50" relative="1" as="geometry">
                        <mxPoint x="80" y="10" as="sourcePoint"/>
                        <mxPoint x="130" y="30" as="targetPoint"/>
                        <Array as="points">
                            <mxPoint x="90" y="10"/>
                            <mxPoint x="95" y="30"/>
                        </Array>
                    </mxGeometry>
                </mxCell>
                <mxCell id="OsnJvZsiz_xSSpyNDT6h-1051" value="" style="endArrow=none;html=1;rounded=0;curved=0;fillColor=#fff2cc;strokeColor=#d6b656;" edge="1" parent="OsnJvZsiz_xSSpyNDT6h-1027">
                    <mxGeometry width="50" height="50" relative="1" as="geometry">
                        <mxPoint x="90" y="70" as="sourcePoint"/>
                        <mxPoint x="130" y="70" as="targetPoint"/>
                        <Array as="points">
                            <mxPoint x="100" y="70"/>
                            <mxPoint x="100" y="50"/>
                            <mxPoint x="120" y="50"/>
                            <mxPoint x="120" y="70"/>
                        </Array>
                    </mxGeometry>
                </mxCell>
                <mxCell id="OsnJvZsiz_xSSpyNDT6h-1052" value="" style="endArrow=none;html=1;fillColor=#dae8fc;strokeColor=#6c8ebf;" edge="1" parent="OsnJvZsiz_xSSpyNDT6h-1027">
                    <mxGeometry width="50" height="50" relative="1" as="geometry">
                        <mxPoint x="80" y="10" as="sourcePoint"/>
                        <mxPoint x="110" y="10" as="targetPoint"/>
                    </mxGeometry>
                </mxCell>
                <mxCell id="OsnJvZsiz_xSSpyNDT6h-1053" value="" style="endArrow=none;html=1;fillColor=#dae8fc;strokeColor=#6c8ebf;" edge="1" parent="OsnJvZsiz_xSSpyNDT6h-1027">
                    <mxGeometry width="50" height="50" relative="1" as="geometry">
                        <mxPoint x="80" y="30" as="sourcePoint"/>
                        <mxPoint x="110" y="30" as="targetPoint"/>
                    </mxGeometry>
                </mxCell>
                <mxCell id="OsnJvZsiz_xSSpyNDT6h-1054" value="SDA" style="rounded=0;whiteSpace=wrap;html=1;fontSize=6;fillColor=#d5e8d4;strokeColor=none;" vertex="1" parent="OsnJvZsiz_xSSpyNDT6h-1027">
                    <mxGeometry x="165" width="15" height="80" as="geometry"/>
                </mxCell>
                <mxCell id="OsnJvZsiz_xSSpyNDT6h-1055" value="SCL" style="rounded=0;whiteSpace=wrap;html=1;fillColor=#f8cecc;strokeColor=none;fontSize=7;" vertex="1" parent="OsnJvZsiz_xSSpyNDT6h-1027">
                    <mxGeometry x="140" width="25" height="80" as="geometry"/>
                </mxCell>
                <mxCell id="OsnJvZsiz_xSSpyNDT6h-1056" value="" style="endArrow=none;html=1;fillColor=#fff2cc;strokeColor=#d6b656;" edge="1" parent="OsnJvZsiz_xSSpyNDT6h-1027">
                    <mxGeometry width="50" height="50" relative="1" as="geometry">
                        <mxPoint x="130" y="70" as="sourcePoint"/>
                        <mxPoint x="170" y="70" as="targetPoint"/>
                        <Array as="points">
                            <mxPoint x="140" y="70"/>
                            <mxPoint x="150" y="50"/>
                            <mxPoint x="160" y="50"/>
                            <mxPoint x="165" y="70"/>
                        </Array>
                    </mxGeometry>
                </mxCell>
                <mxCell id="OsnJvZsiz_xSSpyNDT6h-1057" value="" style="endArrow=none;html=1;fillColor=#dae8fc;strokeColor=#6c8ebf;rounded=0;curved=0;" edge="1" parent="OsnJvZsiz_xSSpyNDT6h-1027">
                    <mxGeometry width="50" height="50" relative="1" as="geometry">
                        <mxPoint x="120" y="30" as="sourcePoint"/>
                        <mxPoint x="170" y="10" as="targetPoint"/>
                        <Array as="points">
                            <mxPoint x="130" y="30"/>
                            <mxPoint x="140" y="10"/>
                        </Array>
                    </mxGeometry>
                </mxCell>
                <mxCell id="OsnJvZsiz_xSSpyNDT6h-1058" value="" style="endArrow=none;html=1;fillColor=#dae8fc;strokeColor=#6c8ebf;rounded=0;curved=0;" edge="1" parent="OsnJvZsiz_xSSpyNDT6h-1027">
                    <mxGeometry width="50" height="50" relative="1" as="geometry">
                        <mxPoint x="120" y="10" as="sourcePoint"/>
                        <mxPoint x="170" y="30" as="targetPoint"/>
                        <Array as="points">
                            <mxPoint x="130" y="10"/>
                            <mxPoint x="135" y="30"/>
                        </Array>
                    </mxGeometry>
                </mxCell>
                <mxCell id="OsnJvZsiz_xSSpyNDT6h-1059" value="" style="endArrow=none;html=1;rounded=0;curved=0;fillColor=#fff2cc;strokeColor=#d6b656;" edge="1" parent="OsnJvZsiz_xSSpyNDT6h-1027">
                    <mxGeometry width="50" height="50" relative="1" as="geometry">
                        <mxPoint x="130" y="70" as="sourcePoint"/>
                        <mxPoint x="170" y="70" as="targetPoint"/>
                        <Array as="points">
                            <mxPoint x="140" y="70"/>
                            <mxPoint x="140" y="50"/>
                            <mxPoint x="160" y="50"/>
                            <mxPoint x="160" y="70"/>
                        </Array>
                    </mxGeometry>
                </mxCell>
                <mxCell id="OsnJvZsiz_xSSpyNDT6h-1060" value="" style="endArrow=none;html=1;fillColor=#dae8fc;strokeColor=#6c8ebf;" edge="1" parent="OsnJvZsiz_xSSpyNDT6h-1027">
                    <mxGeometry width="50" height="50" relative="1" as="geometry">
                        <mxPoint x="120" y="10" as="sourcePoint"/>
                        <mxPoint x="150" y="10" as="targetPoint"/>
                    </mxGeometry>
                </mxCell>
                <mxCell id="OsnJvZsiz_xSSpyNDT6h-1061" value="" style="endArrow=none;html=1;fillColor=#dae8fc;strokeColor=#6c8ebf;" edge="1" parent="OsnJvZsiz_xSSpyNDT6h-1027">
                    <mxGeometry width="50" height="50" relative="1" as="geometry">
                        <mxPoint x="120" y="30" as="sourcePoint"/>
                        <mxPoint x="150" y="30" as="targetPoint"/>
                    </mxGeometry>
                </mxCell>
                <mxCell id="OsnJvZsiz_xSSpyNDT6h-1062" value="SDA" style="rounded=0;whiteSpace=wrap;html=1;fontSize=6;fillColor=#d5e8d4;strokeColor=none;" vertex="1" parent="OsnJvZsiz_xSSpyNDT6h-1027">
                    <mxGeometry x="205" width="15" height="80" as="geometry"/>
                </mxCell>
                <mxCell id="OsnJvZsiz_xSSpyNDT6h-1063" value="SCL" style="rounded=0;whiteSpace=wrap;html=1;fillColor=#f8cecc;strokeColor=none;fontSize=7;" vertex="1" parent="OsnJvZsiz_xSSpyNDT6h-1027">
                    <mxGeometry x="180" width="25" height="80" as="geometry"/>
                </mxCell>
                <mxCell id="OsnJvZsiz_xSSpyNDT6h-1064" value="" style="endArrow=none;html=1;fillColor=#fff2cc;strokeColor=#d6b656;" edge="1" parent="OsnJvZsiz_xSSpyNDT6h-1027">
                    <mxGeometry width="50" height="50" relative="1" as="geometry">
                        <mxPoint x="170" y="70" as="sourcePoint"/>
                        <mxPoint x="210" y="70" as="targetPoint"/>
                        <Array as="points">
                            <mxPoint x="180" y="70"/>
                            <mxPoint x="190" y="50"/>
                            <mxPoint x="200" y="50"/>
                            <mxPoint x="205" y="70"/>
                        </Array>
                    </mxGeometry>
                </mxCell>
                <mxCell id="OsnJvZsiz_xSSpyNDT6h-1065" value="" style="endArrow=none;html=1;fillColor=#dae8fc;strokeColor=#6c8ebf;rounded=0;curved=0;" edge="1" parent="OsnJvZsiz_xSSpyNDT6h-1027">
                    <mxGeometry width="50" height="50" relative="1" as="geometry">
                        <mxPoint x="160" y="30" as="sourcePoint"/>
                        <mxPoint x="210" y="10" as="targetPoint"/>
                        <Array as="points">
                            <mxPoint x="170" y="30"/>
                            <mxPoint x="180" y="10"/>
                        </Array>
                    </mxGeometry>
                </mxCell>
                <mxCell id="OsnJvZsiz_xSSpyNDT6h-1066" value="" style="endArrow=none;html=1;fillColor=#dae8fc;strokeColor=#6c8ebf;rounded=0;curved=0;" edge="1" parent="OsnJvZsiz_xSSpyNDT6h-1027">
                    <mxGeometry width="50" height="50" relative="1" as="geometry">
                        <mxPoint x="160" y="10" as="sourcePoint"/>
                        <mxPoint x="210" y="30" as="targetPoint"/>
                        <Array as="points">
                            <mxPoint x="170" y="10"/>
                            <mxPoint x="175" y="30"/>
                        </Array>
                    </mxGeometry>
                </mxCell>
                <mxCell id="OsnJvZsiz_xSSpyNDT6h-1067" value="" style="endArrow=none;html=1;rounded=0;curved=0;fillColor=#fff2cc;strokeColor=#d6b656;" edge="1" parent="OsnJvZsiz_xSSpyNDT6h-1027">
                    <mxGeometry width="50" height="50" relative="1" as="geometry">
                        <mxPoint x="170" y="70" as="sourcePoint"/>
                        <mxPoint x="210" y="70" as="targetPoint"/>
                        <Array as="points">
                            <mxPoint x="180" y="70"/>
                            <mxPoint x="180" y="50"/>
                            <mxPoint x="200" y="50"/>
                            <mxPoint x="200" y="70"/>
                        </Array>
                    </mxGeometry>
                </mxCell>
                <mxCell id="OsnJvZsiz_xSSpyNDT6h-1068" value="" style="endArrow=none;html=1;fillColor=#dae8fc;strokeColor=#6c8ebf;" edge="1" parent="OsnJvZsiz_xSSpyNDT6h-1027">
                    <mxGeometry width="50" height="50" relative="1" as="geometry">
                        <mxPoint x="160" y="10" as="sourcePoint"/>
                        <mxPoint x="190" y="10" as="targetPoint"/>
                    </mxGeometry>
                </mxCell>
                <mxCell id="OsnJvZsiz_xSSpyNDT6h-1069" value="" style="endArrow=none;html=1;fillColor=#dae8fc;strokeColor=#6c8ebf;" edge="1" parent="OsnJvZsiz_xSSpyNDT6h-1027">
                    <mxGeometry width="50" height="50" relative="1" as="geometry">
                        <mxPoint x="160" y="30" as="sourcePoint"/>
                        <mxPoint x="190" y="30" as="targetPoint"/>
                    </mxGeometry>
                </mxCell>
                <mxCell id="OsnJvZsiz_xSSpyNDT6h-1070" value="SCL" style="rounded=0;whiteSpace=wrap;html=1;fillColor=#f8cecc;strokeColor=none;fontSize=7;" vertex="1" parent="OsnJvZsiz_xSSpyNDT6h-1027">
                    <mxGeometry x="60" width="25" height="80" as="geometry"/>
                </mxCell>
                <mxCell id="OsnJvZsiz_xSSpyNDT6h-1071" value="" style="endArrow=none;html=1;fillColor=#fff2cc;strokeColor=#d6b656;" edge="1" parent="OsnJvZsiz_xSSpyNDT6h-1027">
                    <mxGeometry width="50" height="50" relative="1" as="geometry">
                        <mxPoint x="50" y="70" as="sourcePoint"/>
                        <mxPoint x="90" y="70" as="targetPoint"/>
                        <Array as="points">
                            <mxPoint x="60" y="70"/>
                            <mxPoint x="70" y="50"/>
                            <mxPoint x="80" y="50"/>
                            <mxPoint x="85" y="70"/>
                        </Array>
                    </mxGeometry>
                </mxCell>
                <mxCell id="OsnJvZsiz_xSSpyNDT6h-1072" value="" style="endArrow=none;html=1;fillColor=#dae8fc;strokeColor=#6c8ebf;rounded=0;curved=0;" edge="1" parent="OsnJvZsiz_xSSpyNDT6h-1027">
                    <mxGeometry width="50" height="50" relative="1" as="geometry">
                        <mxPoint x="40" y="30" as="sourcePoint"/>
                        <mxPoint x="90" y="10" as="targetPoint"/>
                        <Array as="points">
                            <mxPoint x="50" y="30"/>
                            <mxPoint x="60" y="10"/>
                        </Array>
                    </mxGeometry>
                </mxCell>
                <mxCell id="OsnJvZsiz_xSSpyNDT6h-1073" value="" style="endArrow=none;html=1;fillColor=#dae8fc;strokeColor=#6c8ebf;rounded=0;curved=0;" edge="1" parent="OsnJvZsiz_xSSpyNDT6h-1027">
                    <mxGeometry width="50" height="50" relative="1" as="geometry">
                        <mxPoint x="40" y="10" as="sourcePoint"/>
                        <mxPoint x="90" y="30" as="targetPoint"/>
                        <Array as="points">
                            <mxPoint x="50" y="10"/>
                            <mxPoint x="55" y="30"/>
                        </Array>
                    </mxGeometry>
                </mxCell>
                <mxCell id="OsnJvZsiz_xSSpyNDT6h-1074" value="" style="endArrow=none;html=1;rounded=0;curved=0;fillColor=#fff2cc;strokeColor=#d6b656;" edge="1" parent="OsnJvZsiz_xSSpyNDT6h-1027">
                    <mxGeometry width="50" height="50" relative="1" as="geometry">
                        <mxPoint x="50" y="70" as="sourcePoint"/>
                        <mxPoint x="90" y="70" as="targetPoint"/>
                        <Array as="points">
                            <mxPoint x="60" y="70"/>
                            <mxPoint x="60" y="50"/>
                            <mxPoint x="80" y="50"/>
                            <mxPoint x="80" y="70"/>
                        </Array>
                    </mxGeometry>
                </mxCell>
                <mxCell id="OsnJvZsiz_xSSpyNDT6h-1075" value="" style="endArrow=none;html=1;fillColor=#dae8fc;strokeColor=#6c8ebf;" edge="1" parent="OsnJvZsiz_xSSpyNDT6h-1027">
                    <mxGeometry width="50" height="50" relative="1" as="geometry">
                        <mxPoint x="40" y="10" as="sourcePoint"/>
                        <mxPoint x="70" y="10" as="targetPoint"/>
                    </mxGeometry>
                </mxCell>
                <mxCell id="OsnJvZsiz_xSSpyNDT6h-1076" value="" style="endArrow=none;html=1;fillColor=#dae8fc;strokeColor=#6c8ebf;" edge="1" parent="OsnJvZsiz_xSSpyNDT6h-1027">
                    <mxGeometry width="50" height="50" relative="1" as="geometry">
                        <mxPoint x="40" y="30" as="sourcePoint"/>
                        <mxPoint x="70" y="30" as="targetPoint"/>
                    </mxGeometry>
                </mxCell>
                <mxCell id="OsnJvZsiz_xSSpyNDT6h-1077" value="SDA" style="rounded=0;whiteSpace=wrap;html=1;fontSize=6;fillColor=#d5e8d4;strokeColor=none;" vertex="1" parent="OsnJvZsiz_xSSpyNDT6h-1027">
                    <mxGeometry x="245" width="15" height="80" as="geometry"/>
                </mxCell>
                <mxCell id="OsnJvZsiz_xSSpyNDT6h-1078" value="SCL" style="rounded=0;whiteSpace=wrap;html=1;fillColor=#f8cecc;strokeColor=none;fontSize=7;" vertex="1" parent="OsnJvZsiz_xSSpyNDT6h-1027">
                    <mxGeometry x="220" width="25" height="80" as="geometry"/>
                </mxCell>
                <mxCell id="OsnJvZsiz_xSSpyNDT6h-1079" value="" style="endArrow=none;html=1;fillColor=#fff2cc;strokeColor=#d6b656;" edge="1" parent="OsnJvZsiz_xSSpyNDT6h-1027">
                    <mxGeometry width="50" height="50" relative="1" as="geometry">
                        <mxPoint x="210" y="70" as="sourcePoint"/>
                        <mxPoint x="250" y="70" as="targetPoint"/>
                        <Array as="points">
                            <mxPoint x="220" y="70"/>
                            <mxPoint x="230" y="50"/>
                            <mxPoint x="240" y="50"/>
                            <mxPoint x="245" y="70"/>
                        </Array>
                    </mxGeometry>
                </mxCell>
                <mxCell id="OsnJvZsiz_xSSpyNDT6h-1080" value="" style="endArrow=none;html=1;fillColor=#dae8fc;strokeColor=#6c8ebf;rounded=0;curved=0;" edge="1" parent="OsnJvZsiz_xSSpyNDT6h-1027">
                    <mxGeometry width="50" height="50" relative="1" as="geometry">
                        <mxPoint x="200" y="30" as="sourcePoint"/>
                        <mxPoint x="250" y="10" as="targetPoint"/>
                        <Array as="points">
                            <mxPoint x="210" y="30"/>
                            <mxPoint x="220" y="10"/>
                        </Array>
                    </mxGeometry>
                </mxCell>
                <mxCell id="OsnJvZsiz_xSSpyNDT6h-1081" value="" style="endArrow=none;html=1;fillColor=#dae8fc;strokeColor=#6c8ebf;rounded=0;curved=0;" edge="1" parent="OsnJvZsiz_xSSpyNDT6h-1027">
                    <mxGeometry width="50" height="50" relative="1" as="geometry">
                        <mxPoint x="200" y="10" as="sourcePoint"/>
                        <mxPoint x="250" y="30" as="targetPoint"/>
                        <Array as="points">
                            <mxPoint x="210" y="10"/>
                            <mxPoint x="215" y="30"/>
                        </Array>
                    </mxGeometry>
                </mxCell>
                <mxCell id="OsnJvZsiz_xSSpyNDT6h-1082" value="" style="endArrow=none;html=1;rounded=0;curved=0;fillColor=#fff2cc;strokeColor=#d6b656;" edge="1" parent="OsnJvZsiz_xSSpyNDT6h-1027">
                    <mxGeometry width="50" height="50" relative="1" as="geometry">
                        <mxPoint x="210" y="70" as="sourcePoint"/>
                        <mxPoint x="250" y="70" as="targetPoint"/>
                        <Array as="points">
                            <mxPoint x="220" y="70"/>
                            <mxPoint x="220" y="50"/>
                            <mxPoint x="240" y="50"/>
                            <mxPoint x="240" y="70"/>
                        </Array>
                    </mxGeometry>
                </mxCell>
                <mxCell id="OsnJvZsiz_xSSpyNDT6h-1083" value="" style="endArrow=none;html=1;fillColor=#dae8fc;strokeColor=#6c8ebf;" edge="1" parent="OsnJvZsiz_xSSpyNDT6h-1027">
                    <mxGeometry width="50" height="50" relative="1" as="geometry">
                        <mxPoint x="200" y="10" as="sourcePoint"/>
                        <mxPoint x="230" y="10" as="targetPoint"/>
                    </mxGeometry>
                </mxCell>
                <mxCell id="OsnJvZsiz_xSSpyNDT6h-1084" value="" style="endArrow=none;html=1;fillColor=#dae8fc;strokeColor=#6c8ebf;" edge="1" parent="OsnJvZsiz_xSSpyNDT6h-1027">
                    <mxGeometry width="50" height="50" relative="1" as="geometry">
                        <mxPoint x="200" y="30" as="sourcePoint"/>
                        <mxPoint x="230" y="30" as="targetPoint"/>
                    </mxGeometry>
                </mxCell>
                <mxCell id="OsnJvZsiz_xSSpyNDT6h-1085" value="SDA" style="rounded=0;whiteSpace=wrap;html=1;fontSize=6;fillColor=#d5e8d4;strokeColor=none;" vertex="1" parent="OsnJvZsiz_xSSpyNDT6h-1027">
                    <mxGeometry x="285" width="15" height="80" as="geometry"/>
                </mxCell>
                <mxCell id="OsnJvZsiz_xSSpyNDT6h-1086" value="SCL" style="rounded=0;whiteSpace=wrap;html=1;fillColor=#f8cecc;strokeColor=none;fontSize=7;" vertex="1" parent="OsnJvZsiz_xSSpyNDT6h-1027">
                    <mxGeometry x="260" width="25" height="80" as="geometry"/>
                </mxCell>
                <mxCell id="OsnJvZsiz_xSSpyNDT6h-1087" value="" style="endArrow=none;html=1;fillColor=#fff2cc;strokeColor=#d6b656;" edge="1" parent="OsnJvZsiz_xSSpyNDT6h-1027">
                    <mxGeometry width="50" height="50" relative="1" as="geometry">
                        <mxPoint x="250" y="70" as="sourcePoint"/>
                        <mxPoint x="290" y="70" as="targetPoint"/>
                        <Array as="points">
                            <mxPoint x="260" y="70"/>
                            <mxPoint x="270" y="50"/>
                            <mxPoint x="280" y="50"/>
                            <mxPoint x="285" y="70"/>
                        </Array>
                    </mxGeometry>
                </mxCell>
                <mxCell id="OsnJvZsiz_xSSpyNDT6h-1088" value="" style="endArrow=none;html=1;fillColor=#dae8fc;strokeColor=#6c8ebf;rounded=0;curved=0;" edge="1" parent="OsnJvZsiz_xSSpyNDT6h-1027">
                    <mxGeometry width="50" height="50" relative="1" as="geometry">
                        <mxPoint x="240" y="30" as="sourcePoint"/>
                        <mxPoint x="290" y="10" as="targetPoint"/>
                        <Array as="points">
                            <mxPoint x="250" y="30"/>
                            <mxPoint x="260" y="10"/>
                        </Array>
                    </mxGeometry>
                </mxCell>
                <mxCell id="OsnJvZsiz_xSSpyNDT6h-1089" value="" style="endArrow=none;html=1;fillColor=#dae8fc;strokeColor=#6c8ebf;rounded=0;curved=0;" edge="1" parent="OsnJvZsiz_xSSpyNDT6h-1027">
                    <mxGeometry width="50" height="50" relative="1" as="geometry">
                        <mxPoint x="240" y="10" as="sourcePoint"/>
                        <mxPoint x="290" y="30" as="targetPoint"/>
                        <Array as="points">
                            <mxPoint x="250" y="10"/>
                            <mxPoint x="255" y="30"/>
                        </Array>
                    </mxGeometry>
                </mxCell>
                <mxCell id="OsnJvZsiz_xSSpyNDT6h-1090" value="" style="endArrow=none;html=1;rounded=0;curved=0;fillColor=#fff2cc;strokeColor=#d6b656;" edge="1" parent="OsnJvZsiz_xSSpyNDT6h-1027">
                    <mxGeometry width="50" height="50" relative="1" as="geometry">
                        <mxPoint x="250" y="70" as="sourcePoint"/>
                        <mxPoint x="290" y="70" as="targetPoint"/>
                        <Array as="points">
                            <mxPoint x="260" y="70"/>
                            <mxPoint x="260" y="50"/>
                            <mxPoint x="280" y="50"/>
                            <mxPoint x="280" y="70"/>
                        </Array>
                    </mxGeometry>
                </mxCell>
                <mxCell id="OsnJvZsiz_xSSpyNDT6h-1091" value="" style="endArrow=none;html=1;fillColor=#dae8fc;strokeColor=#6c8ebf;" edge="1" parent="OsnJvZsiz_xSSpyNDT6h-1027">
                    <mxGeometry width="50" height="50" relative="1" as="geometry">
                        <mxPoint x="240" y="10" as="sourcePoint"/>
                        <mxPoint x="270" y="10" as="targetPoint"/>
                    </mxGeometry>
                </mxCell>
                <mxCell id="OsnJvZsiz_xSSpyNDT6h-1092" value="" style="endArrow=none;html=1;fillColor=#dae8fc;strokeColor=#6c8ebf;" edge="1" parent="OsnJvZsiz_xSSpyNDT6h-1027">
                    <mxGeometry width="50" height="50" relative="1" as="geometry">
                        <mxPoint x="240" y="30" as="sourcePoint"/>
                        <mxPoint x="270" y="30" as="targetPoint"/>
                    </mxGeometry>
                </mxCell>
                <mxCell id="OsnJvZsiz_xSSpyNDT6h-1093" value="" style="endArrow=none;html=1;fillColor=#fff2cc;strokeColor=#d6b656;" edge="1" parent="OsnJvZsiz_xSSpyNDT6h-1027">
                    <mxGeometry width="50" height="50" relative="1" as="geometry">
                        <mxPoint x="290" y="70" as="sourcePoint"/>
                        <mxPoint x="330" y="70" as="targetPoint"/>
                        <Array as="points">
                            <mxPoint x="300" y="70"/>
                            <mxPoint x="310" y="50"/>
                            <mxPoint x="320" y="50"/>
                            <mxPoint x="325" y="70"/>
                        </Array>
                    </mxGeometry>
                </mxCell>
                <mxCell id="OsnJvZsiz_xSSpyNDT6h-1094" value="" style="endArrow=none;html=1;fillColor=#dae8fc;strokeColor=#6c8ebf;rounded=0;curved=0;" edge="1" parent="OsnJvZsiz_xSSpyNDT6h-1027">
                    <mxGeometry width="50" height="50" relative="1" as="geometry">
                        <mxPoint x="280" y="30" as="sourcePoint"/>
                        <mxPoint x="330" y="10" as="targetPoint"/>
                        <Array as="points">
                            <mxPoint x="290" y="30"/>
                            <mxPoint x="300" y="10"/>
                        </Array>
                    </mxGeometry>
                </mxCell>
                <mxCell id="OsnJvZsiz_xSSpyNDT6h-1095" value="" style="endArrow=none;html=1;fillColor=#dae8fc;strokeColor=#6c8ebf;rounded=0;curved=0;" edge="1" parent="OsnJvZsiz_xSSpyNDT6h-1027">
                    <mxGeometry width="50" height="50" relative="1" as="geometry">
                        <mxPoint x="280" y="10" as="sourcePoint"/>
                        <mxPoint x="320" y="30" as="targetPoint"/>
                        <Array as="points">
                            <mxPoint x="290" y="10"/>
                            <mxPoint x="295" y="30"/>
                        </Array>
                    </mxGeometry>
                </mxCell>
                <mxCell id="OsnJvZsiz_xSSpyNDT6h-1096" value="" style="endArrow=none;html=1;rounded=0;curved=0;fillColor=#fff2cc;strokeColor=#d6b656;" edge="1" parent="OsnJvZsiz_xSSpyNDT6h-1027">
                    <mxGeometry width="50" height="50" relative="1" as="geometry">
                        <mxPoint x="290" y="70" as="sourcePoint"/>
                        <mxPoint x="330" y="70" as="targetPoint"/>
                        <Array as="points">
                            <mxPoint x="300" y="70"/>
                            <mxPoint x="300" y="50"/>
                            <mxPoint x="320" y="50"/>
                            <mxPoint x="320" y="70"/>
                        </Array>
                    </mxGeometry>
                </mxCell>
                <mxCell id="OsnJvZsiz_xSSpyNDT6h-1097" value="" style="endArrow=none;html=1;fillColor=#dae8fc;strokeColor=#6c8ebf;" edge="1" parent="OsnJvZsiz_xSSpyNDT6h-1027">
                    <mxGeometry width="50" height="50" relative="1" as="geometry">
                        <mxPoint x="280" y="10" as="sourcePoint"/>
                        <mxPoint x="310" y="10" as="targetPoint"/>
                    </mxGeometry>
                </mxCell>
                <mxCell id="OsnJvZsiz_xSSpyNDT6h-1098" value="" style="endArrow=none;html=1;fillColor=#dae8fc;strokeColor=#6c8ebf;" edge="1" parent="OsnJvZsiz_xSSpyNDT6h-1027">
                    <mxGeometry width="50" height="50" relative="1" as="geometry">
                        <mxPoint x="280" y="30" as="sourcePoint"/>
                        <mxPoint x="310" y="30" as="targetPoint"/>
                    </mxGeometry>
                </mxCell>
                <mxCell id="OsnJvZsiz_xSSpyNDT6h-1099" value="LSB" style="text;html=1;align=center;verticalAlign=middle;whiteSpace=wrap;rounded=0;" vertex="1" parent="OsnJvZsiz_xSSpyNDT6h-1027">
                    <mxGeometry x="290" width="40" height="10" as="geometry"/>
                </mxCell>
                <mxCell id="OsnJvZsiz_xSSpyNDT6h-1100" value="" style="endArrow=none;html=1;fillColor=#dae8fc;strokeColor=#6c8ebf;rounded=0;curved=0;" edge="1" parent="1">
                    <mxGeometry width="50" height="50" relative="1" as="geometry">
                        <mxPoint x="510" y="50" as="sourcePoint"/>
                        <mxPoint x="560" y="70" as="targetPoint"/>
                        <Array as="points">
                            <mxPoint x="520" y="50"/>
                            <mxPoint x="525" y="70"/>
                        </Array>
                    </mxGeometry>
                </mxCell>
                <mxCell id="OsnJvZsiz_xSSpyNDT6h-1101" value="" style="group" vertex="1" connectable="0" parent="1">
                    <mxGeometry x="720" y="1" width="630.48" height="39" as="geometry"/>
                </mxCell>
                <mxCell id="OsnJvZsiz_xSSpyNDT6h-1102" value="" style="endArrow=none;html=1;strokeWidth=2;strokeColor=#666666;dashed=1;" edge="1" parent="OsnJvZsiz_xSSpyNDT6h-1101">
                    <mxGeometry width="50" height="50" relative="1" as="geometry">
                        <mxPoint y="39" as="sourcePoint"/>
                        <mxPoint as="targetPoint"/>
                    </mxGeometry>
                </mxCell>
                <mxCell id="OsnJvZsiz_xSSpyNDT6h-1103" value="" style="endArrow=none;dashed=1;html=1;strokeWidth=1;strokeColor=#666666;" edge="1" parent="OsnJvZsiz_xSSpyNDT6h-1101">
                    <mxGeometry width="50" height="50" relative="1" as="geometry">
                        <mxPoint x="10.480000000000004" y="39" as="sourcePoint"/>
                        <mxPoint x="10.480000000000004" as="targetPoint"/>
                    </mxGeometry>
                </mxCell>
                <mxCell id="OsnJvZsiz_xSSpyNDT6h-1104" value="" style="endArrow=none;dashed=1;html=1;strokeWidth=1;strokeColor=#666666;" edge="1" parent="OsnJvZsiz_xSSpyNDT6h-1101">
                    <mxGeometry width="50" height="50" relative="1" as="geometry">
                        <mxPoint x="20.239999999999995" y="39" as="sourcePoint"/>
                        <mxPoint x="20.239999999999995" as="targetPoint"/>
                    </mxGeometry>
                </mxCell>
                <mxCell id="OsnJvZsiz_xSSpyNDT6h-1105" value="" style="endArrow=none;dashed=1;html=1;strokeWidth=1;strokeColor=#666666;" edge="1" parent="OsnJvZsiz_xSSpyNDT6h-1101">
                    <mxGeometry width="50" height="50" relative="1" as="geometry">
                        <mxPoint x="30.480000000000004" y="39" as="sourcePoint"/>
                        <mxPoint x="30.480000000000004" as="targetPoint"/>
                    </mxGeometry>
                </mxCell>
                <mxCell id="OsnJvZsiz_xSSpyNDT6h-1106" value="" style="endArrow=none;html=1;strokeWidth=2;strokeColor=#666666;dashed=1;" edge="1" parent="OsnJvZsiz_xSSpyNDT6h-1101">
                    <mxGeometry width="50" height="50" relative="1" as="geometry">
                        <mxPoint x="39.999999999999986" y="39" as="sourcePoint"/>
                        <mxPoint x="39.999999999999986" as="targetPoint"/>
                    </mxGeometry>
                </mxCell>
                <mxCell id="OsnJvZsiz_xSSpyNDT6h-1107" value="" style="endArrow=none;dashed=1;html=1;strokeWidth=1;strokeColor=#666666;" edge="1" parent="OsnJvZsiz_xSSpyNDT6h-1101">
                    <mxGeometry width="50" height="50" relative="1" as="geometry">
                        <mxPoint x="50.480000000000004" y="39" as="sourcePoint"/>
                        <mxPoint x="50.480000000000004" as="targetPoint"/>
                    </mxGeometry>
                </mxCell>
                <mxCell id="OsnJvZsiz_xSSpyNDT6h-1108" value="" style="endArrow=none;dashed=1;html=1;strokeWidth=1;strokeColor=#666666;" edge="1" parent="OsnJvZsiz_xSSpyNDT6h-1101">
                    <mxGeometry width="50" height="50" relative="1" as="geometry">
                        <mxPoint x="60.239999999999995" y="39" as="sourcePoint"/>
                        <mxPoint x="60.239999999999995" as="targetPoint"/>
                    </mxGeometry>
                </mxCell>
                <mxCell id="OsnJvZsiz_xSSpyNDT6h-1109" value="" style="endArrow=none;dashed=1;html=1;strokeWidth=1;strokeColor=#666666;" edge="1" parent="OsnJvZsiz_xSSpyNDT6h-1101">
                    <mxGeometry width="50" height="50" relative="1" as="geometry">
                        <mxPoint x="70.48" y="39" as="sourcePoint"/>
                        <mxPoint x="70.48" as="targetPoint"/>
                    </mxGeometry>
                </mxCell>
                <mxCell id="OsnJvZsiz_xSSpyNDT6h-1110" value="" style="endArrow=none;html=1;strokeWidth=2;strokeColor=#666666;dashed=1;" edge="1" parent="OsnJvZsiz_xSSpyNDT6h-1101">
                    <mxGeometry width="50" height="50" relative="1" as="geometry">
                        <mxPoint x="79.99999999999999" y="39" as="sourcePoint"/>
                        <mxPoint x="79.99999999999999" as="targetPoint"/>
                    </mxGeometry>
                </mxCell>
                <mxCell id="OsnJvZsiz_xSSpyNDT6h-1111" value="" style="endArrow=none;dashed=1;html=1;strokeWidth=1;strokeColor=#666666;" edge="1" parent="OsnJvZsiz_xSSpyNDT6h-1101">
                    <mxGeometry width="50" height="50" relative="1" as="geometry">
                        <mxPoint x="90.48" y="39" as="sourcePoint"/>
                        <mxPoint x="90.48" as="targetPoint"/>
                    </mxGeometry>
                </mxCell>
                <mxCell id="OsnJvZsiz_xSSpyNDT6h-1112" value="" style="endArrow=none;dashed=1;html=1;strokeWidth=1;strokeColor=#666666;" edge="1" parent="OsnJvZsiz_xSSpyNDT6h-1101">
                    <mxGeometry width="50" height="50" relative="1" as="geometry">
                        <mxPoint x="100.24" y="39" as="sourcePoint"/>
                        <mxPoint x="100.24" as="targetPoint"/>
                    </mxGeometry>
                </mxCell>
                <mxCell id="OsnJvZsiz_xSSpyNDT6h-1113" value="" style="endArrow=none;dashed=1;html=1;strokeWidth=1;strokeColor=#666666;" edge="1" parent="OsnJvZsiz_xSSpyNDT6h-1101">
                    <mxGeometry width="50" height="50" relative="1" as="geometry">
                        <mxPoint x="110.48" y="39" as="sourcePoint"/>
                        <mxPoint x="110.48" as="targetPoint"/>
                    </mxGeometry>
                </mxCell>
                <mxCell id="OsnJvZsiz_xSSpyNDT6h-1114" value="" style="endArrow=none;html=1;strokeWidth=2;strokeColor=#666666;dashed=1;" edge="1" parent="OsnJvZsiz_xSSpyNDT6h-1101">
                    <mxGeometry width="50" height="50" relative="1" as="geometry">
                        <mxPoint x="119.99999999999999" y="39" as="sourcePoint"/>
                        <mxPoint x="119.99999999999999" as="targetPoint"/>
                    </mxGeometry>
                </mxCell>
                <mxCell id="OsnJvZsiz_xSSpyNDT6h-1115" value="" style="endArrow=none;dashed=1;html=1;strokeWidth=1;strokeColor=#666666;" edge="1" parent="OsnJvZsiz_xSSpyNDT6h-1101">
                    <mxGeometry width="50" height="50" relative="1" as="geometry">
                        <mxPoint x="130.48000000000002" y="39" as="sourcePoint"/>
                        <mxPoint x="130.48000000000002" as="targetPoint"/>
                    </mxGeometry>
                </mxCell>
                <mxCell id="OsnJvZsiz_xSSpyNDT6h-1116" value="" style="endArrow=none;dashed=1;html=1;strokeWidth=1;strokeColor=#666666;" edge="1" parent="OsnJvZsiz_xSSpyNDT6h-1101">
                    <mxGeometry width="50" height="50" relative="1" as="geometry">
                        <mxPoint x="140.24" y="39" as="sourcePoint"/>
                        <mxPoint x="140.24" as="targetPoint"/>
                    </mxGeometry>
                </mxCell>
                <mxCell id="OsnJvZsiz_xSSpyNDT6h-1117" value="" style="endArrow=none;dashed=1;html=1;strokeWidth=1;strokeColor=#666666;" edge="1" parent="OsnJvZsiz_xSSpyNDT6h-1101">
                    <mxGeometry width="50" height="50" relative="1" as="geometry">
                        <mxPoint x="150.48000000000002" y="39" as="sourcePoint"/>
                        <mxPoint x="150.48000000000002" as="targetPoint"/>
                    </mxGeometry>
                </mxCell>
                <mxCell id="OsnJvZsiz_xSSpyNDT6h-1118" value="" style="endArrow=none;html=1;strokeWidth=2;strokeColor=#666666;dashed=1;" edge="1" parent="OsnJvZsiz_xSSpyNDT6h-1101">
                    <mxGeometry width="50" height="50" relative="1" as="geometry">
                        <mxPoint x="160" y="39" as="sourcePoint"/>
                        <mxPoint x="160" as="targetPoint"/>
                    </mxGeometry>
                </mxCell>
                <mxCell id="OsnJvZsiz_xSSpyNDT6h-1119" value="" style="endArrow=none;dashed=1;html=1;strokeWidth=1;strokeColor=#666666;" edge="1" parent="OsnJvZsiz_xSSpyNDT6h-1101">
                    <mxGeometry width="50" height="50" relative="1" as="geometry">
                        <mxPoint x="170.48000000000002" y="39" as="sourcePoint"/>
                        <mxPoint x="170.48000000000002" as="targetPoint"/>
                    </mxGeometry>
                </mxCell>
                <mxCell id="OsnJvZsiz_xSSpyNDT6h-1120" value="" style="endArrow=none;dashed=1;html=1;strokeWidth=1;strokeColor=#666666;" edge="1" parent="OsnJvZsiz_xSSpyNDT6h-1101">
                    <mxGeometry width="50" height="50" relative="1" as="geometry">
                        <mxPoint x="180.24" y="39" as="sourcePoint"/>
                        <mxPoint x="180.24" as="targetPoint"/>
                    </mxGeometry>
                </mxCell>
                <mxCell id="OsnJvZsiz_xSSpyNDT6h-1121" value="" style="endArrow=none;dashed=1;html=1;strokeWidth=1;strokeColor=#666666;" edge="1" parent="OsnJvZsiz_xSSpyNDT6h-1101">
                    <mxGeometry width="50" height="50" relative="1" as="geometry">
                        <mxPoint x="190.48000000000002" y="39" as="sourcePoint"/>
                        <mxPoint x="190.48000000000002" as="targetPoint"/>
                    </mxGeometry>
                </mxCell>
                <mxCell id="OsnJvZsiz_xSSpyNDT6h-1122" value="" style="endArrow=none;html=1;strokeWidth=2;strokeColor=#666666;dashed=1;" edge="1" parent="OsnJvZsiz_xSSpyNDT6h-1101">
                    <mxGeometry width="50" height="50" relative="1" as="geometry">
                        <mxPoint x="200" y="39" as="sourcePoint"/>
                        <mxPoint x="200" as="targetPoint"/>
                    </mxGeometry>
                </mxCell>
                <mxCell id="OsnJvZsiz_xSSpyNDT6h-1123" value="" style="endArrow=none;dashed=1;html=1;strokeWidth=1;strokeColor=#666666;" edge="1" parent="OsnJvZsiz_xSSpyNDT6h-1101">
                    <mxGeometry width="50" height="50" relative="1" as="geometry">
                        <mxPoint x="210.48000000000002" y="39" as="sourcePoint"/>
                        <mxPoint x="210.48000000000002" as="targetPoint"/>
                    </mxGeometry>
                </mxCell>
                <mxCell id="OsnJvZsiz_xSSpyNDT6h-1124" value="" style="endArrow=none;dashed=1;html=1;strokeWidth=1;strokeColor=#666666;" edge="1" parent="OsnJvZsiz_xSSpyNDT6h-1101">
                    <mxGeometry width="50" height="50" relative="1" as="geometry">
                        <mxPoint x="220.24" y="39" as="sourcePoint"/>
                        <mxPoint x="220.24" as="targetPoint"/>
                    </mxGeometry>
                </mxCell>
                <mxCell id="OsnJvZsiz_xSSpyNDT6h-1125" value="" style="endArrow=none;dashed=1;html=1;strokeWidth=1;strokeColor=#666666;" edge="1" parent="OsnJvZsiz_xSSpyNDT6h-1101">
                    <mxGeometry width="50" height="50" relative="1" as="geometry">
                        <mxPoint x="230.48000000000002" y="39" as="sourcePoint"/>
                        <mxPoint x="230.48000000000002" as="targetPoint"/>
                    </mxGeometry>
                </mxCell>
                <mxCell id="OsnJvZsiz_xSSpyNDT6h-1126" value="" style="endArrow=none;html=1;strokeWidth=2;strokeColor=#666666;dashed=1;" edge="1" parent="OsnJvZsiz_xSSpyNDT6h-1101">
                    <mxGeometry width="50" height="50" relative="1" as="geometry">
                        <mxPoint x="240" y="39" as="sourcePoint"/>
                        <mxPoint x="240" as="targetPoint"/>
                    </mxGeometry>
                </mxCell>
                <mxCell id="OsnJvZsiz_xSSpyNDT6h-1127" value="" style="endArrow=none;dashed=1;html=1;strokeWidth=1;strokeColor=#666666;" edge="1" parent="OsnJvZsiz_xSSpyNDT6h-1101">
                    <mxGeometry width="50" height="50" relative="1" as="geometry">
                        <mxPoint x="250.48000000000002" y="39" as="sourcePoint"/>
                        <mxPoint x="250.48000000000002" as="targetPoint"/>
                    </mxGeometry>
                </mxCell>
                <mxCell id="OsnJvZsiz_xSSpyNDT6h-1128" value="" style="endArrow=none;dashed=1;html=1;strokeWidth=1;strokeColor=#666666;" edge="1" parent="OsnJvZsiz_xSSpyNDT6h-1101">
                    <mxGeometry width="50" height="50" relative="1" as="geometry">
                        <mxPoint x="260.24" y="39" as="sourcePoint"/>
                        <mxPoint x="260.24" as="targetPoint"/>
                    </mxGeometry>
                </mxCell>
                <mxCell id="OsnJvZsiz_xSSpyNDT6h-1129" value="" style="endArrow=none;dashed=1;html=1;strokeWidth=1;strokeColor=#666666;" edge="1" parent="OsnJvZsiz_xSSpyNDT6h-1101">
                    <mxGeometry width="50" height="50" relative="1" as="geometry">
                        <mxPoint x="270.48" y="39" as="sourcePoint"/>
                        <mxPoint x="270.48" as="targetPoint"/>
                    </mxGeometry>
                </mxCell>
                <mxCell id="OsnJvZsiz_xSSpyNDT6h-1130" value="" style="endArrow=none;html=1;strokeWidth=2;strokeColor=#666666;dashed=1;" edge="1" parent="OsnJvZsiz_xSSpyNDT6h-1101">
                    <mxGeometry width="50" height="50" relative="1" as="geometry">
                        <mxPoint x="280" y="39" as="sourcePoint"/>
                        <mxPoint x="280" as="targetPoint"/>
                    </mxGeometry>
                </mxCell>
                <mxCell id="OsnJvZsiz_xSSpyNDT6h-1131" value="" style="endArrow=none;dashed=1;html=1;strokeWidth=1;strokeColor=#666666;" edge="1" parent="OsnJvZsiz_xSSpyNDT6h-1101">
                    <mxGeometry width="50" height="50" relative="1" as="geometry">
                        <mxPoint x="290.48" y="39" as="sourcePoint"/>
                        <mxPoint x="290.48" as="targetPoint"/>
                    </mxGeometry>
                </mxCell>
                <mxCell id="OsnJvZsiz_xSSpyNDT6h-1132" value="" style="endArrow=none;dashed=1;html=1;strokeWidth=1;strokeColor=#666666;" edge="1" parent="OsnJvZsiz_xSSpyNDT6h-1101">
                    <mxGeometry width="50" height="50" relative="1" as="geometry">
                        <mxPoint x="300.24" y="39" as="sourcePoint"/>
                        <mxPoint x="300.24" as="targetPoint"/>
                    </mxGeometry>
                </mxCell>
                <mxCell id="OsnJvZsiz_xSSpyNDT6h-1133" value="" style="endArrow=none;dashed=1;html=1;strokeWidth=1;strokeColor=#666666;" edge="1" parent="OsnJvZsiz_xSSpyNDT6h-1101">
                    <mxGeometry width="50" height="50" relative="1" as="geometry">
                        <mxPoint x="310.48" y="39" as="sourcePoint"/>
                        <mxPoint x="310.48" as="targetPoint"/>
                    </mxGeometry>
                </mxCell>
                <mxCell id="OsnJvZsiz_xSSpyNDT6h-1134" value="" style="endArrow=none;html=1;strokeWidth=2;strokeColor=#666666;dashed=1;" edge="1" parent="OsnJvZsiz_xSSpyNDT6h-1101">
                    <mxGeometry width="50" height="50" relative="1" as="geometry">
                        <mxPoint x="320" y="39" as="sourcePoint"/>
                        <mxPoint x="320" as="targetPoint"/>
                    </mxGeometry>
                </mxCell>
                <mxCell id="OsnJvZsiz_xSSpyNDT6h-1135" value="" style="endArrow=none;dashed=1;html=1;strokeWidth=1;strokeColor=#666666;" edge="1" parent="OsnJvZsiz_xSSpyNDT6h-1101">
                    <mxGeometry width="50" height="50" relative="1" as="geometry">
                        <mxPoint x="330.48" y="39" as="sourcePoint"/>
                        <mxPoint x="330.48" as="targetPoint"/>
                    </mxGeometry>
                </mxCell>
                <mxCell id="OsnJvZsiz_xSSpyNDT6h-1136" value="" style="endArrow=none;dashed=1;html=1;strokeWidth=1;strokeColor=#666666;" edge="1" parent="OsnJvZsiz_xSSpyNDT6h-1101">
                    <mxGeometry width="50" height="50" relative="1" as="geometry">
                        <mxPoint x="340.24" y="39" as="sourcePoint"/>
                        <mxPoint x="340.24" as="targetPoint"/>
                    </mxGeometry>
                </mxCell>
                <mxCell id="OsnJvZsiz_xSSpyNDT6h-1137" value="" style="endArrow=none;dashed=1;html=1;strokeWidth=1;strokeColor=#666666;" edge="1" parent="OsnJvZsiz_xSSpyNDT6h-1101">
                    <mxGeometry width="50" height="50" relative="1" as="geometry">
                        <mxPoint x="350.48" y="39" as="sourcePoint"/>
                        <mxPoint x="350.48" as="targetPoint"/>
                    </mxGeometry>
                </mxCell>
                <mxCell id="OsnJvZsiz_xSSpyNDT6h-1138" value="" style="endArrow=none;html=1;strokeWidth=2;strokeColor=#666666;dashed=1;" edge="1" parent="OsnJvZsiz_xSSpyNDT6h-1101">
                    <mxGeometry width="50" height="50" relative="1" as="geometry">
                        <mxPoint x="360" y="39" as="sourcePoint"/>
                        <mxPoint x="360" as="targetPoint"/>
                    </mxGeometry>
                </mxCell>
                <mxCell id="OsnJvZsiz_xSSpyNDT6h-1139" value="" style="endArrow=none;dashed=1;html=1;strokeWidth=1;strokeColor=#666666;" edge="1" parent="OsnJvZsiz_xSSpyNDT6h-1101">
                    <mxGeometry width="50" height="50" relative="1" as="geometry">
                        <mxPoint x="370.48" y="39" as="sourcePoint"/>
                        <mxPoint x="370.48" as="targetPoint"/>
                    </mxGeometry>
                </mxCell>
                <mxCell id="OsnJvZsiz_xSSpyNDT6h-1140" value="" style="endArrow=none;dashed=1;html=1;strokeWidth=1;strokeColor=#666666;" edge="1" parent="OsnJvZsiz_xSSpyNDT6h-1101">
                    <mxGeometry width="50" height="50" relative="1" as="geometry">
                        <mxPoint x="380.24" y="39" as="sourcePoint"/>
                        <mxPoint x="380.24" as="targetPoint"/>
                    </mxGeometry>
                </mxCell>
                <mxCell id="OsnJvZsiz_xSSpyNDT6h-1141" value="" style="endArrow=none;dashed=1;html=1;strokeWidth=1;strokeColor=#666666;" edge="1" parent="OsnJvZsiz_xSSpyNDT6h-1101">
                    <mxGeometry width="50" height="50" relative="1" as="geometry">
                        <mxPoint x="390.48" y="39" as="sourcePoint"/>
                        <mxPoint x="390.48" as="targetPoint"/>
                    </mxGeometry>
                </mxCell>
                <mxCell id="OsnJvZsiz_xSSpyNDT6h-1142" value="" style="endArrow=none;html=1;strokeWidth=2;strokeColor=#666666;dashed=1;" edge="1" parent="OsnJvZsiz_xSSpyNDT6h-1101">
                    <mxGeometry width="50" height="50" relative="1" as="geometry">
                        <mxPoint x="400" y="39" as="sourcePoint"/>
                        <mxPoint x="400" as="targetPoint"/>
                    </mxGeometry>
                </mxCell>
                <mxCell id="OsnJvZsiz_xSSpyNDT6h-1143" value="" style="endArrow=none;dashed=1;html=1;strokeWidth=1;strokeColor=#666666;" edge="1" parent="OsnJvZsiz_xSSpyNDT6h-1101">
                    <mxGeometry width="50" height="50" relative="1" as="geometry">
                        <mxPoint x="410.48" y="39" as="sourcePoint"/>
                        <mxPoint x="410.48" as="targetPoint"/>
                    </mxGeometry>
                </mxCell>
                <mxCell id="OsnJvZsiz_xSSpyNDT6h-1144" value="" style="endArrow=none;dashed=1;html=1;strokeWidth=1;strokeColor=#666666;" edge="1" parent="OsnJvZsiz_xSSpyNDT6h-1101">
                    <mxGeometry width="50" height="50" relative="1" as="geometry">
                        <mxPoint x="420.24" y="39" as="sourcePoint"/>
                        <mxPoint x="420.24" as="targetPoint"/>
                    </mxGeometry>
                </mxCell>
                <mxCell id="OsnJvZsiz_xSSpyNDT6h-1145" value="" style="endArrow=none;dashed=1;html=1;strokeWidth=1;strokeColor=#666666;" edge="1" parent="OsnJvZsiz_xSSpyNDT6h-1101">
                    <mxGeometry width="50" height="50" relative="1" as="geometry">
                        <mxPoint x="430.48" y="39" as="sourcePoint"/>
                        <mxPoint x="430.48" as="targetPoint"/>
                    </mxGeometry>
                </mxCell>
                <mxCell id="OsnJvZsiz_xSSpyNDT6h-1146" value="" style="endArrow=none;html=1;strokeWidth=2;strokeColor=#666666;dashed=1;" edge="1" parent="OsnJvZsiz_xSSpyNDT6h-1101">
                    <mxGeometry width="50" height="50" relative="1" as="geometry">
                        <mxPoint x="440" y="39" as="sourcePoint"/>
                        <mxPoint x="440" as="targetPoint"/>
                    </mxGeometry>
                </mxCell>
                <mxCell id="OsnJvZsiz_xSSpyNDT6h-1147" value="" style="endArrow=none;dashed=1;html=1;strokeWidth=1;strokeColor=#666666;" edge="1" parent="OsnJvZsiz_xSSpyNDT6h-1101">
                    <mxGeometry width="50" height="50" relative="1" as="geometry">
                        <mxPoint x="450.48" y="39" as="sourcePoint"/>
                        <mxPoint x="450.48" as="targetPoint"/>
                    </mxGeometry>
                </mxCell>
                <mxCell id="OsnJvZsiz_xSSpyNDT6h-1148" value="" style="endArrow=none;dashed=1;html=1;strokeWidth=1;strokeColor=#666666;" edge="1" parent="OsnJvZsiz_xSSpyNDT6h-1101">
                    <mxGeometry width="50" height="50" relative="1" as="geometry">
                        <mxPoint x="460.24" y="39" as="sourcePoint"/>
                        <mxPoint x="460.24" as="targetPoint"/>
                    </mxGeometry>
                </mxCell>
                <mxCell id="OsnJvZsiz_xSSpyNDT6h-1149" value="" style="endArrow=none;dashed=1;html=1;strokeWidth=1;strokeColor=#666666;" edge="1" parent="OsnJvZsiz_xSSpyNDT6h-1101">
                    <mxGeometry width="50" height="50" relative="1" as="geometry">
                        <mxPoint x="470.48" y="39" as="sourcePoint"/>
                        <mxPoint x="470.48" as="targetPoint"/>
                    </mxGeometry>
                </mxCell>
                <mxCell id="OsnJvZsiz_xSSpyNDT6h-1150" value="" style="endArrow=none;html=1;strokeWidth=2;strokeColor=#666666;dashed=1;" edge="1" parent="OsnJvZsiz_xSSpyNDT6h-1101">
                    <mxGeometry width="50" height="50" relative="1" as="geometry">
                        <mxPoint x="480" y="39" as="sourcePoint"/>
                        <mxPoint x="480" as="targetPoint"/>
                    </mxGeometry>
                </mxCell>
                <mxCell id="OsnJvZsiz_xSSpyNDT6h-1151" value="" style="endArrow=none;dashed=1;html=1;strokeWidth=1;strokeColor=#666666;" edge="1" parent="OsnJvZsiz_xSSpyNDT6h-1101">
                    <mxGeometry width="50" height="50" relative="1" as="geometry">
                        <mxPoint x="490.48" y="39" as="sourcePoint"/>
                        <mxPoint x="490.48" as="targetPoint"/>
                    </mxGeometry>
                </mxCell>
                <mxCell id="OsnJvZsiz_xSSpyNDT6h-1152" value="" style="endArrow=none;dashed=1;html=1;strokeWidth=1;strokeColor=#666666;" edge="1" parent="OsnJvZsiz_xSSpyNDT6h-1101">
                    <mxGeometry width="50" height="50" relative="1" as="geometry">
                        <mxPoint x="500.24" y="39" as="sourcePoint"/>
                        <mxPoint x="500.24" as="targetPoint"/>
                    </mxGeometry>
                </mxCell>
                <mxCell id="OsnJvZsiz_xSSpyNDT6h-1153" value="" style="endArrow=none;dashed=1;html=1;strokeWidth=1;strokeColor=#666666;" edge="1" parent="OsnJvZsiz_xSSpyNDT6h-1101">
                    <mxGeometry width="50" height="50" relative="1" as="geometry">
                        <mxPoint x="510.48" y="39" as="sourcePoint"/>
                        <mxPoint x="510.48" as="targetPoint"/>
                    </mxGeometry>
                </mxCell>
                <mxCell id="OsnJvZsiz_xSSpyNDT6h-1154" value="" style="endArrow=none;html=1;strokeWidth=2;strokeColor=#666666;dashed=1;" edge="1" parent="OsnJvZsiz_xSSpyNDT6h-1101">
                    <mxGeometry width="50" height="50" relative="1" as="geometry">
                        <mxPoint x="520" y="39" as="sourcePoint"/>
                        <mxPoint x="520" as="targetPoint"/>
                    </mxGeometry>
                </mxCell>
                <mxCell id="OsnJvZsiz_xSSpyNDT6h-1155" value="" style="endArrow=none;dashed=1;html=1;strokeWidth=1;strokeColor=#666666;" edge="1" parent="OsnJvZsiz_xSSpyNDT6h-1101">
                    <mxGeometry width="50" height="50" relative="1" as="geometry">
                        <mxPoint x="530.48" y="39" as="sourcePoint"/>
                        <mxPoint x="530.48" as="targetPoint"/>
                    </mxGeometry>
                </mxCell>
                <mxCell id="OsnJvZsiz_xSSpyNDT6h-1156" value="" style="endArrow=none;dashed=1;html=1;strokeWidth=1;strokeColor=#666666;" edge="1" parent="OsnJvZsiz_xSSpyNDT6h-1101">
                    <mxGeometry width="50" height="50" relative="1" as="geometry">
                        <mxPoint x="540.24" y="39" as="sourcePoint"/>
                        <mxPoint x="540.24" as="targetPoint"/>
                    </mxGeometry>
                </mxCell>
                <mxCell id="OsnJvZsiz_xSSpyNDT6h-1157" value="" style="endArrow=none;dashed=1;html=1;strokeWidth=1;strokeColor=#666666;" edge="1" parent="OsnJvZsiz_xSSpyNDT6h-1101">
                    <mxGeometry width="50" height="50" relative="1" as="geometry">
                        <mxPoint x="550.48" y="39" as="sourcePoint"/>
                        <mxPoint x="550.48" as="targetPoint"/>
                    </mxGeometry>
                </mxCell>
                <mxCell id="OsnJvZsiz_xSSpyNDT6h-1158" value="" style="endArrow=none;html=1;strokeWidth=2;strokeColor=#666666;dashed=1;" edge="1" parent="OsnJvZsiz_xSSpyNDT6h-1101">
                    <mxGeometry width="50" height="50" relative="1" as="geometry">
                        <mxPoint x="560" y="39" as="sourcePoint"/>
                        <mxPoint x="560" as="targetPoint"/>
                    </mxGeometry>
                </mxCell>
                <mxCell id="OsnJvZsiz_xSSpyNDT6h-1159" value="" style="endArrow=none;dashed=1;html=1;strokeWidth=1;strokeColor=#666666;" edge="1" parent="OsnJvZsiz_xSSpyNDT6h-1101">
                    <mxGeometry width="50" height="50" relative="1" as="geometry">
                        <mxPoint x="570.48" y="39" as="sourcePoint"/>
                        <mxPoint x="570.48" as="targetPoint"/>
                    </mxGeometry>
                </mxCell>
                <mxCell id="OsnJvZsiz_xSSpyNDT6h-1160" value="" style="endArrow=none;dashed=1;html=1;strokeWidth=1;strokeColor=#666666;" edge="1" parent="OsnJvZsiz_xSSpyNDT6h-1101">
                    <mxGeometry width="50" height="50" relative="1" as="geometry">
                        <mxPoint x="580.24" y="39" as="sourcePoint"/>
                        <mxPoint x="580.24" as="targetPoint"/>
                    </mxGeometry>
                </mxCell>
                <mxCell id="OsnJvZsiz_xSSpyNDT6h-1161" value="" style="endArrow=none;dashed=1;html=1;strokeWidth=1;strokeColor=#666666;" edge="1" parent="OsnJvZsiz_xSSpyNDT6h-1101">
                    <mxGeometry width="50" height="50" relative="1" as="geometry">
                        <mxPoint x="590.48" y="39" as="sourcePoint"/>
                        <mxPoint x="590.48" as="targetPoint"/>
                    </mxGeometry>
                </mxCell>
                <mxCell id="OsnJvZsiz_xSSpyNDT6h-1162" value="" style="endArrow=none;html=1;strokeWidth=2;strokeColor=#666666;dashed=1;" edge="1" parent="OsnJvZsiz_xSSpyNDT6h-1101">
                    <mxGeometry width="50" height="50" relative="1" as="geometry">
                        <mxPoint x="600" y="39" as="sourcePoint"/>
                        <mxPoint x="600" as="targetPoint"/>
                    </mxGeometry>
                </mxCell>
                <mxCell id="OsnJvZsiz_xSSpyNDT6h-1163" value="" style="endArrow=none;dashed=1;html=1;strokeWidth=1;strokeColor=#666666;" edge="1" parent="OsnJvZsiz_xSSpyNDT6h-1101">
                    <mxGeometry width="50" height="50" relative="1" as="geometry">
                        <mxPoint x="610.48" y="39" as="sourcePoint"/>
                        <mxPoint x="610.48" as="targetPoint"/>
                    </mxGeometry>
                </mxCell>
                <mxCell id="OsnJvZsiz_xSSpyNDT6h-1164" value="" style="endArrow=none;dashed=1;html=1;strokeWidth=1;strokeColor=#666666;" edge="1" parent="OsnJvZsiz_xSSpyNDT6h-1101">
                    <mxGeometry width="50" height="50" relative="1" as="geometry">
                        <mxPoint x="620.24" y="39" as="sourcePoint"/>
                        <mxPoint x="620.24" as="targetPoint"/>
                    </mxGeometry>
                </mxCell>
                <mxCell id="OsnJvZsiz_xSSpyNDT6h-1165" value="" style="endArrow=none;dashed=1;html=1;strokeWidth=1;strokeColor=#666666;" edge="1" parent="OsnJvZsiz_xSSpyNDT6h-1101">
                    <mxGeometry width="50" height="50" relative="1" as="geometry">
                        <mxPoint x="630.48" y="39" as="sourcePoint"/>
                        <mxPoint x="630.48" as="targetPoint"/>
                    </mxGeometry>
                </mxCell>
                <mxCell id="OsnJvZsiz_xSSpyNDT6h-1166" value="" style="endArrow=none;html=1;fillColor=#fff2cc;strokeColor=#d6b656;" edge="1" parent="1">
                    <mxGeometry width="50" height="50" relative="1" as="geometry">
                        <mxPoint x="920" y="110" as="sourcePoint"/>
                        <mxPoint x="960" y="90" as="targetPoint"/>
                        <Array as="points">
                            <mxPoint x="930" y="110"/>
                            <mxPoint x="940" y="90"/>
                        </Array>
                    </mxGeometry>
                </mxCell>
                <mxCell id="OsnJvZsiz_xSSpyNDT6h-1167" value="" style="endArrow=none;html=1;rounded=0;curved=0;fillColor=#fff2cc;strokeColor=#d6b656;" edge="1" parent="1">
                    <mxGeometry width="50" height="50" relative="1" as="geometry">
                        <mxPoint x="920" y="110" as="sourcePoint"/>
                        <mxPoint x="960" y="90" as="targetPoint"/>
                        <Array as="points">
                            <mxPoint x="930" y="110"/>
                            <mxPoint x="930" y="90"/>
                        </Array>
                    </mxGeometry>
                </mxCell>
                <mxCell id="OsnJvZsiz_xSSpyNDT6h-1168" value="" style="endArrow=none;html=1;fillColor=#dae8fc;strokeColor=#6c8ebf;" edge="1" parent="1">
                    <mxGeometry width="50" height="50" relative="1" as="geometry">
                        <mxPoint x="920" y="50" as="sourcePoint"/>
                        <mxPoint x="960" y="50" as="targetPoint"/>
                    </mxGeometry>
                </mxCell>
                <mxCell id="OsnJvZsiz_xSSpyNDT6h-1169" value="STOP" style="text;html=1;align=center;verticalAlign=middle;whiteSpace=wrap;rounded=0;" vertex="1" parent="1">
                    <mxGeometry x="920" y="40" width="40" height="10" as="geometry"/>
                </mxCell>
            </root>
        </mxGraphModel>
    </diagram>
    <diagram id="6fpkKASmjiJwVJYxu-Ql" name="Page-1">
        <mxGraphModel dx="1443" dy="829" grid="1" gridSize="10" guides="1" tooltips="1" connect="1" arrows="0" fold="1" page="1" pageScale="1" pageWidth="850" pageHeight="1100" math="0" shadow="0">
            <root>
                <mxCell id="0"/>
                <mxCell id="1" parent="0"/>
                <mxCell id="37" value="AXI4 Slave" style="rounded=0;whiteSpace=wrap;html=1;" vertex="1" parent="1">
                    <mxGeometry x="80" y="40" width="120" height="60" as="geometry"/>
                </mxCell>
                <mxCell id="44" value="" style="group" vertex="1" connectable="0" parent="1">
                    <mxGeometry y="40" width="80" height="20" as="geometry"/>
                </mxCell>
                <mxCell id="45" value="" style="endArrow=classic;html=1;endFill=1;" edge="1" parent="44">
                    <mxGeometry width="50" height="50" relative="1" as="geometry">
                        <mxPoint y="10" as="sourcePoint"/>
                        <mxPoint x="80" y="10" as="targetPoint"/>
                    </mxGeometry>
                </mxCell>
                <mxCell id="46" value="" style="endArrow=none;html=1;" edge="1" parent="44">
                    <mxGeometry width="50" height="50" relative="1" as="geometry">
                        <mxPoint x="15" y="20" as="sourcePoint"/>
                        <mxPoint x="5" as="targetPoint"/>
                    </mxGeometry>
                </mxCell>
                <mxCell id="47" value="type" style="text;html=1;align=left;verticalAlign=middle;whiteSpace=wrap;rounded=0;fontSize=7;" vertex="1" parent="44">
                    <mxGeometry x="15" y="10" width="55" height="10" as="geometry"/>
                </mxCell>
                <mxCell id="48" value="AXI-Slave_" style="text;html=1;align=left;verticalAlign=middle;whiteSpace=wrap;rounded=0;fontSize=7;" vertex="1" parent="44">
                    <mxGeometry x="10" width="60" height="10" as="geometry"/>
                </mxCell>
                <mxCell id="49" value="Buffer" style="rounded=0;whiteSpace=wrap;html=1;" vertex="1" parent="1">
                    <mxGeometry x="280" y="40" width="120" height="60" as="geometry"/>
                </mxCell>
                <mxCell id="50" value="" style="endArrow=classic;html=1;entryX=0;entryY=0.25;entryDx=0;entryDy=0;exitX=1;exitY=0.25;exitDx=0;exitDy=0;" edge="1" parent="1" source="37" target="49">
                    <mxGeometry width="50" height="50" relative="1" as="geometry">
                        <mxPoint x="200" y="60" as="sourcePoint"/>
                        <mxPoint x="250" y="10" as="targetPoint"/>
                    </mxGeometry>
                </mxCell>
                <mxCell id="51" value="Buffer" style="rounded=0;whiteSpace=wrap;html=1;" vertex="1" parent="1">
                    <mxGeometry x="280" y="120" width="120" height="60" as="geometry"/>
                </mxCell>
                <mxCell id="52" style="edgeStyle=none;html=1;exitX=0;exitY=0.25;exitDx=0;exitDy=0;entryX=0.996;entryY=0.656;entryDx=0;entryDy=0;entryPerimeter=0;" edge="1" parent="1" source="51" target="37">
                    <mxGeometry relative="1" as="geometry"/>
                </mxCell>
                <mxCell id="53" value="I2C" style="rounded=0;whiteSpace=wrap;html=1;align=left;verticalAlign=top;" vertex="1" parent="1">
                    <mxGeometry x="440" y="10" width="150" height="190" as="geometry"/>
                </mxCell>
                <mxCell id="60" style="edgeStyle=none;html=1;exitX=1;exitY=0.5;exitDx=0;exitDy=0;entryX=1;entryY=0.5;entryDx=0;entryDy=0;" edge="1" parent="1" source="54" target="55">
                    <mxGeometry relative="1" as="geometry">
                        <mxPoint x="630" y="100" as="targetPoint"/>
                        <Array as="points">
                            <mxPoint x="630" y="100"/>
                        </Array>
                    </mxGeometry>
                </mxCell>
                <mxCell id="54" value="i2c master" style="rounded=0;whiteSpace=wrap;html=1;" vertex="1" parent="1">
                    <mxGeometry x="455" y="40" width="120" height="60" as="geometry"/>
                </mxCell>
                <mxCell id="57" style="edgeStyle=none;html=1;exitX=0;exitY=0.5;exitDx=0;exitDy=0;entryX=1;entryY=0.5;entryDx=0;entryDy=0;" edge="1" parent="1" source="55" target="51">
                    <mxGeometry relative="1" as="geometry"/>
                </mxCell>
                <mxCell id="55" value="i2c slave" style="rounded=0;whiteSpace=wrap;html=1;" vertex="1" parent="1">
                    <mxGeometry x="455" y="120" width="120" height="60" as="geometry"/>
                </mxCell>
                <mxCell id="56" style="edgeStyle=none;html=1;exitX=1;exitY=0.5;exitDx=0;exitDy=0;entryX=0;entryY=0.5;entryDx=0;entryDy=0;" edge="1" parent="1" source="49" target="54">
                    <mxGeometry relative="1" as="geometry"/>
                </mxCell>
                <mxCell id="58" value="" style="endArrow=classic;startArrow=classic;html=1;" edge="1" parent="1">
                    <mxGeometry width="50" height="50" relative="1" as="geometry">
                        <mxPoint x="630" y="100" as="sourcePoint"/>
                        <mxPoint x="690" y="100" as="targetPoint"/>
                    </mxGeometry>
                </mxCell>
                <mxCell id="59" value="i2c" style="edgeLabel;html=1;align=center;verticalAlign=middle;resizable=0;points=[];" vertex="1" connectable="0" parent="58">
                    <mxGeometry x="-0.5167" y="-1" relative="1" as="geometry">
                        <mxPoint x="16" y="-1" as="offset"/>
                    </mxGeometry>
                </mxCell>
            </root>
        </mxGraphModel>
    </diagram>
</mxfile>